<svg id="Layer_1" data-name="Layer 1" xmlns="http://www.w3.org/2000/svg" viewBox="0 0 50 50"><defs><style>.cls-1{fill:#e0e1e0;}.cls-2{fill:#b5b6b6;}</style></defs><title>avatar default</title><path class="cls-1" d="M25.64,50,25,50l-1.36,0A24.44,24.44,0,0,1,10.2,45.09,24.52,24.52,0,0,1,.87,31.34c-.16-.63-.3-1.28-.43-1.91-.06-.29-.12-.59-.19-.88L0,25.63c0-.2,0-.4,0-.61,0-.43,0-.88.05-1.32A25,25,0,0,1,18.66.87C19.29.7,19.94.56,20.58.43l.88-.19L24.37,0,25,0l1.36.05A24.44,24.44,0,0,1,39.81,4.91a24.52,24.52,0,0,1,9.33,13.75c.17.63.3,1.28.43,1.91.07.29.13.59.19.88L50,24.37c0,.2,0,.4,0,.61,0,.43,0,.88-.05,1.32A24.5,24.5,0,0,1,45,39.88a24.49,24.49,0,0,1-13.69,9.25c-.63.17-1.28.31-1.91.44l-.89.19Z" transform="translate(-0.01 0)"/><path class="cls-2" d="M25.43,42.65c.65-.06,1.73-.1,2.79-.26a22,22,0,0,0,11.89-5.73.45.45,0,0,0,.14-.58A16.1,16.1,0,0,0,22,25.6,15.8,15.8,0,0,0,9.77,36.06a.45.45,0,0,0,.12.59A22.41,22.41,0,0,0,25.43,42.65Z" transform="translate(-0.01 0)"/><path class="cls-2" d="M32.35,15A7.35,7.35,0,1,0,25,22.34,7.37,7.37,0,0,0,32.35,15Z" transform="translate(-0.01 0)"/></svg>