<?xml version="1.0" encoding="UTF-8"?>
<svg width="105px" height="121px" viewBox="0 0 105 121" version="1.1" xmlns="http://www.w3.org/2000/svg" xmlns:xlink="http://www.w3.org/1999/xlink">
    <!-- Generator: Sketch 53.1 (72631) - https://sketchapp.com -->
    <title>icon-contest</title>
    <desc>Created with Sketch.</desc>
    <defs>
        <polygon id="path-1" points="0 0.16632 104.746678 0.16632 104.746678 108.089795 0 108.089795"></polygon>
        <path d="M0.810975,13.77145 C0.810975,13.77145 -9.234225,70.45775 48.523475,99.5038 L48.523475,99.5038 C106.280625,70.45775 96.2357,13.77145 96.2357,13.77145 L96.2357,13.77145 L48.523475,0.18535" id="path-3"></path>
        <path d="M0.810975,13.77145 C0.810975,13.77145 -9.234225,70.45775 48.523475,99.5038 L48.523475,99.5038 C106.280625,70.45775 96.2357,13.77145 96.2357,13.77145 L96.2357,13.77145 L48.523475,0.18535" id="path-5"></path>
        <polygon id="path-7" points="0.237545 0.182105 16.2269213 0.182105 16.2269213 6.6 0.237545 6.6"></polygon>
        <polygon id="path-9" points="0.1434327 0.182325 16.13293 0.182325 16.13293 6.6 0.1434327 6.6"></polygon>
    </defs>
    <g id="Page-1" stroke="none" stroke-width="1" fill="none" fill-rule="evenodd">
        <g id="Contest" transform="translate(-417.000000, -293.000000)">
            <g id="Banner" transform="translate(390.000000, 130.000000)">
                <g id="icon-contest" transform="translate(27.000000, 163.000000)">
                    <g id="Group-6" transform="translate(0.000000, 0.085250)">
                        <g id="Group-3">
                            <mask id="mask-2" fill="white">
                                <use xlink:href="#path-1"></use>
                            </mask>
                            <g id="Clip-2"></g>
                            <path d="M50.5827575,107.189445 C36.8646575,100.290795 25.6952575,91.27712 17.3847575,80.398945 C10.7116075,71.66412 5.8735325,61.73552 3.0050075,50.889245 C-1.8721175,32.44967 0.6276325,17.814995 0.7362575,17.20092 L1.1713075,14.745995 L52.3732825,0.16632 L103.575533,14.745995 L104.010308,17.20092 C104.119208,17.814995 106.618682,32.44967 101.741558,50.889245 C98.8730325,61.73552 94.0349575,71.66412 87.3618075,80.398945 C79.0513075,91.27712 67.8821825,100.290795 54.1640825,107.189445 L52.3732825,108.089795 L50.5827575,107.189445 Z" id="Fill-1" fill="#FF9F00" mask="url(#mask-2)"></path>
                        </g>
                        <path d="M100.085838,17.8963675 L52.3733375,4.3102675 L4.6608375,17.8963675 C4.6608375,17.8963675 -5.3840875,74.5826675 52.3733375,103.628717 C110.130488,74.5826675 100.085838,17.8963675 100.085838,17.8963675" id="Fill-4" fill="#FFC600"></path>
                    </g>
                    <g id="Group-13" transform="translate(3.850000, 4.210250)">
                        <g id="Group-9">
                            <mask id="mask-4" fill="white">
                                <use xlink:href="#path-3"></use>
                            </mask>
                            <g id="Clip-8"></g>
                            <path d="M24.3214675,64.307595 L21.9286925,62.089445 C20.2487175,60.53212 20.1494425,57.907795 21.7067675,56.22782 L95.3693675,-23.23233 C96.9266925,-24.912305 99.5510175,-25.01158 101.230718,-23.454255 L103.623768,-21.236105 C105.303468,-19.67878 105.403018,-17.054455 103.845693,-15.37448 L30.1830925,64.08567 C28.6257675,65.765645 26.0014425,65.86492 24.3214675,64.307595" id="Fill-7" fill="#FFDA00" mask="url(#mask-4)"></path>
                        </g>
                        <g id="Group-12">
                            <mask id="mask-6" fill="white">
                                <use xlink:href="#path-5"></use>
                            </mask>
                            <g id="Clip-11"></g>
                            <path d="M24.720135,92.00752 L22.32736,89.78937 C20.647385,88.232045 20.54811,85.60772 22.105435,83.927745 L95.76776,4.467595 C97.32536,2.78762 99.949685,2.688345 101.629385,4.24567 L104.02216,6.464095 C105.702135,8.02142 105.80141,10.64547 104.244085,12.325445 L30.581485,91.785595 C29.02416,93.46557 26.399835,93.564845 24.720135,92.00752" id="Fill-10" fill="#FFDA00" mask="url(#mask-6)"></path>
                        </g>
                    </g>
                    <g id="Group-44" transform="translate(6.325000, 0.085250)">
                        <path d="M14.3055825,93.8225475 C14.2637825,93.6179475 13.2385825,88.7839975 9.5417575,86.5432975 C5.8449325,84.3023225 1.0852325,85.6289225 0.8842075,85.6866725 C0.2737075,85.8615725 -0.0997425,86.4772975 0.0275825,87.0998975 C0.0693825,87.3044975 1.0945825,92.1381725 4.7914075,94.3791475 C7.2617325,95.8767975 10.2067075,95.7810975 11.9488325,95.5355225 C12.8137075,95.4136975 13.3818575,95.2550225 13.4486825,95.2357725 C14.0597325,95.0608725 14.4329075,94.4451475 14.3055825,93.8225475" id="Fill-14" fill="#FFDF65"></path>
                        <path d="M13.448765,95.2358275 C13.754015,95.1483775 14.00014,94.9506525 14.153865,94.6971025 L0.17919,86.2254525 C0.025465,86.4792775 -0.036135,86.7886525 0.027665,87.0999525 C0.06974,87.3045525 1.09494,92.1382275 4.79149,94.3792025 C7.261815,95.8768525 10.20679,95.7808775 11.948915,95.5355775 C12.81379,95.4137525 13.382215,95.2550775 13.448765,95.2358275" id="Fill-16" fill="#FFC41F"></path>
                        <path d="M26.548995,105.22457 C26.42222,105.05847 23.394745,101.153195 19.09127,100.74482 C14.787245,100.33672 11.080245,103.60317 10.92432,103.742595 C10.450495,104.166095 10.38257,104.882745 10.768395,105.38792 C10.894895,105.55402 13.92237,109.459295 18.225845,109.867395 C18.763745,109.918545 19.291745,109.91222 19.80517,109.861895 C23.40052,109.508245 26.25667,106.991995 26.39307,106.869895 C26.86662,106.446395 26.934545,105.72947 26.548995,105.22457" id="Fill-18" fill="#FFDF65"></path>
                        <path d="M19.80506,109.86184 C23.40041,109.50819 26.25656,106.99194 26.39296,106.870115 C26.629735,106.658365 26.76531,106.37319 26.79336,106.07784 L10.524085,104.534815 C10.496035,104.82989 10.57551,105.135415 10.768285,105.387865 C10.89506,105.553965 13.92226,109.459515 18.22601,109.867615 C18.763635,109.91849 19.29191,109.91244 19.80506,109.86184" id="Fill-20" fill="#FFC41F"></path>
                        <path d="M40.4548925,113.56939 C40.2832925,113.45004 36.2061425,110.65824 31.9840675,111.586365 C27.7619925,112.51449 25.2317175,116.75884 25.1261175,116.938965 C24.8046425,117.487315 24.9591925,118.19049 25.4808675,118.553215 C25.6048925,118.639565 27.7757425,120.126215 30.5667175,120.588765 C31.6312425,120.76504 32.7859675,120.79254 33.9516925,120.53624 C38.1737675,119.608115 40.7040425,115.363765 40.8096425,115.18364 C41.1311175,114.635565 40.9765675,113.93239 40.4548925,113.56939" id="Fill-22" fill="#FFDF65"></path>
                        <g id="Group-26" transform="translate(24.750000, 114.125000)">
                            <mask id="mask-8" fill="white">
                                <use xlink:href="#path-7"></use>
                            </mask>
                            <g id="Clip-25"></g>
                            <path d="M16.05967,1.058805 C16.22027,0.78463 16.26207,0.471955 16.198545,0.182105 L0.237545,3.69083 C0.30107,3.980405 0.470195,4.24688 0.730895,4.42838 C0.855195,4.51473 3.02577,6.001655 5.81702,6.46393 C6.881545,6.640205 8.03627,6.667705 9.20172,6.411405 C13.423795,5.483005 15.95407,1.23893 16.05967,1.058805" id="Fill-24" fill="#FFC41F" mask="url(#mask-8)"></path>
                        </g>
                        <path d="M78.54682,95.23569 C78.613645,95.25494 79.181795,95.413615 80.04667,95.53544 C81.78852,95.781015 84.73377,95.87699 87.204095,94.37934 C90.900645,92.138365 91.925845,87.304415 91.96792,87.099815 C92.095245,86.477215 91.721795,85.861765 91.11102,85.68659 C90.91027,85.62884 86.150295,84.30224 82.453745,86.543215 C78.75692,88.78419 77.73172,93.617865 77.689645,93.822465 C77.562595,94.445065 77.93577,95.06079 78.54682,95.23569" id="Fill-27" fill="#FFDF65"></path>
                        <path d="M80.0464225,95.5355225 C81.7882725,95.7810975 84.7332475,95.8767975 87.2038475,94.3791475 C90.9006725,92.1381725 91.9258725,87.3044975 91.9676725,87.0998975 C92.0314725,86.7885975 91.9698725,86.4792225 91.8161475,86.2256725 L77.8414725,94.6970475 C77.9951975,94.9505975 78.2413225,95.1483225 78.5465725,95.2357725 C78.6131225,95.2550225 79.1815475,95.4139725 80.0464225,95.5355225" id="Fill-29" fill="#FFC41F"></path>
                        <path d="M65.6024875,106.870005 C65.7388875,106.99183 68.5950375,109.508355 72.1903875,109.86173 C72.7035375,109.91233 73.2315375,109.91838 73.7694375,109.867505 C78.0731875,109.459405 81.1003875,105.553855 81.2271625,105.38803 C81.6127125,104.882855 81.5447875,104.166205 81.0712375,103.74243 C80.9153125,103.60328 77.2080375,100.336555 72.9042875,100.74493 C68.6005375,101.15303 65.5733375,105.05858 65.4465625,105.22468 C65.0607375,105.72958 65.1286625,106.44623 65.6024875,106.870005" id="Fill-31" fill="#FFDF65"></path>
                        <path d="M73.7693825,109.867477 C78.0731325,109.459377 81.1003325,105.554102 81.2271075,105.388002 C81.4198825,105.135278 81.4993575,104.830027 81.4713075,104.534678 L65.2023075,106.077978 C65.2303575,106.373053 65.3656575,106.658227 65.6024325,106.869977 C65.7388325,106.991802 68.5949825,109.508327 72.1903325,109.861702 C72.7037575,109.912302 73.2314825,109.918627 73.7693825,109.867477" id="Fill-33" fill="#FFC41F"></path>
                        <path d="M51.1856675,115.18353 C51.2912675,115.36393 53.8215425,119.608005 58.0438925,120.53613 C59.2093425,120.79243 60.3640675,120.76493 61.4285925,120.588655 C64.2195675,120.12638 66.3904175,118.639455 66.5144425,118.553105 C67.0363925,118.19038 67.1906675,117.487205 66.8694675,116.93913 C66.7635925,116.75873 64.2333175,112.51438 60.0112425,111.586255 C55.7891675,110.65813 51.7120175,113.44993 51.5406925,113.56928 C51.0190175,113.93228 50.8644675,114.635455 51.1856675,115.18353" id="Fill-35" fill="#FFDF65"></path>
                        <g id="Group-39" transform="translate(50.875000, 114.125000)">
                            <mask id="mask-10" fill="white">
                                <use xlink:href="#path-9"></use>
                            </mask>
                            <g id="Clip-38"></g>
                            <path d="M7.168755,6.41135 C8.334205,6.66765 9.489205,6.640425 10.553455,6.463875 C13.344705,6.0016 15.51528,4.51495 15.639305,4.4286 C15.90028,4.246825 16.06913,3.98035 16.13293,3.690775 L0.17193,0.182325 C0.10813,0.4719 0.150205,0.784575 0.310805,1.05875 C0.416405,1.238875 2.94668,5.483225 7.168755,6.41135" id="Fill-37" fill="#FFC41F" mask="url(#mask-10)"></path>
                        </g>
                        <path d="M65.38873,48.7285975 C63.36583,51.7695475 60.91008,53.8639475 58.25688,54.8660475 C58.71888,54.1086975 59.16328,53.3054225 59.588705,52.4545725 C62.25978,47.1124225 63.968355,40.3828975 64.544205,33.1022725 L70.08078,33.1022725 C69.83053,39.0249475 68.18658,44.5238475 65.38873,48.7285975 M26.771305,48.7285975 C23.973455,44.5238475 22.329505,39.0249475 22.079255,33.1022725 L27.61583,33.1022725 C28.19113,40.3828975 29.900255,47.1124225 32.57133,52.4545725 C32.996755,53.3054225 33.441705,54.1086975 33.903155,54.8660475 C31.249955,53.8639475 28.79448,51.7695475 26.771305,48.7285975 M71.70988,29.9117225 L64.722405,29.9117225 C64.747705,29.1378725 64.762005,28.3593475 64.762005,27.5769725 C64.762005,26.6958725 64.047555,25.9819725 63.16673,25.9819725 L28.993855,25.9819725 C28.112755,25.9819725 27.39858,26.6958725 27.39858,27.5769725 C27.39858,28.3593475 27.41233,29.1378725 27.43763,29.9117225 L20.450155,29.9117225 C19.569055,29.9117225 18.855155,30.6258975 18.855155,31.5069975 C18.855155,38.6547975 20.72323,45.3983475 24.11508,50.4957475 C27.46788,55.5353975 31.934155,58.4259225 36.75848,58.7069725 C37.852155,59.8971725 39.008805,60.8676475 40.21303,61.6079475 L40.21303,68.6979975 L37.537005,68.6979975 C34.30163,68.6979975 31.66988,71.3300225 31.66988,74.5648475 L31.66988,77.2411475 L31.55658,77.2411475 C30.67548,77.2411475 29.961305,77.9555975 29.961305,78.8361475 C29.961305,79.7175225 30.67548,80.4314225 31.55658,80.4314225 L60.60373,80.4314225 C61.484555,80.4314225 62.19873,79.7175225 62.19873,78.8361475 C62.19873,77.9555975 61.484555,77.2411475 60.60373,77.2411475 L60.490155,77.2411475 L60.490155,74.5648475 C60.490155,71.3300225 57.85813,68.6979975 54.623305,68.6979975 L51.947005,68.6979975 L51.947005,61.6079475 C53.151505,60.8676475 54.307605,59.8971725 55.40128,58.7069725 C60.22588,58.4259225 64.691605,55.5353975 68.044955,50.4957475 C71.436805,45.3983475 73.305155,38.6547975 73.305155,31.5069975 C73.305155,30.6258975 72.59043,29.9117225 71.70988,29.9117225" id="Fill-40" fill="#FFFFFF"></path>
                        <path d="M97.25045,14.74594 L46.0801,0.17534 L46.0801,108.074065 L47.839,107.18939 C61.5571,100.29074 72.7265,91.277065 81.037,80.39889 C87.709875,71.664065 92.54795,61.73574 95.41675,50.889465 C100.2936,32.449615 97.794125,17.81494 97.6855,17.200865 L97.25045,14.74594 Z" id="Fill-42" fill-opacity="0.3" fill="#FF9F00"></path>
                    </g>
                </g>
            </g>
        </g>
    </g>
</svg>