<?xml version="1.0" encoding="UTF-8"?>
<svg width="202px" height="190px" viewBox="0 0 202 190" version="1.1" xmlns="http://www.w3.org/2000/svg" xmlns:xlink="http://www.w3.org/1999/xlink">
    <!-- Generator: sketchtool 63.1 (101010) - https://sketch.com -->
    <title>0184644C-C1D8-4784-AE45-EE2DEBF999AD</title>
    <desc>Created with sketchtool.</desc>
    <defs>
        <linearGradient x1="50%" y1="0%" x2="50%" y2="100%" id="linearGradient-1">
            <stop stop-color="#66ECF2" offset="0%"></stop>
            <stop stop-color="#49B7E0" offset="100%"></stop>
        </linearGradient>
        <polygon id="path-2" points="0.104301255 0.596291139 46.2967197 0.596291139 46.2967197 3.69466667 0.104301255 3.69466667"></polygon>
        <path d="M0.552366412,39.5078939 L89.130916,136.826328 L179.448321,40.1652172 C138.150687,2.5670202 107.382366,-12.141798 87.0622901,12.218601 L87.0622901,12.218601 C80.5472519,4.03596465 72.9261069,0.276767677 64.2531298,0.276767677 L64.2531298,0.276767677 C47.0370229,0.276767677 25.6706107,15.0852222 0.552366412,39.5078939" id="path-4"></path>
        <path d="M0.552366412,39.5078939 L89.130916,136.826328 L179.448321,40.1652172 C138.150687,2.5670202 107.382366,-12.141798 87.0622901,12.218601 L87.0622901,12.218601 C80.5472519,4.03596465 72.9261069,0.276767677 64.2531298,0.276767677 L64.2531298,0.276767677 C47.0370229,0.276767677 25.6706107,15.0852222 0.552366412,39.5078939" id="path-6"></path>
        <path d="M0.552366412,39.5078939 L89.130916,136.826328 L179.448321,40.1652172 C138.150687,2.5670202 107.382366,-12.141798 87.0622901,12.218601 L87.0622901,12.218601 C80.5472519,4.03596465 72.9261069,0.276767677 64.2531298,0.276767677 L64.2531298,0.276767677 C47.0370229,0.276767677 25.6706107,15.0852222 0.552366412,39.5078939" id="path-8"></path>
        <path d="M0.552366412,39.5078939 L89.130916,136.826328 L179.448321,40.1652172 C138.150687,2.5670202 107.382366,-12.141798 87.0622901,12.218601 L87.0622901,12.218601 C80.5472519,4.03596465 72.9261069,0.276767677 64.2531298,0.276767677 L64.2531298,0.276767677 C47.0370229,0.276767677 25.6706107,15.0852222 0.552366412,39.5078939" id="path-10"></path>
        <path d="M0.552366412,39.5078939 L89.130916,136.826328 L179.448321,40.1652172 C138.150687,2.5670202 107.382366,-12.141798 87.0622901,12.218601 L87.0622901,12.218601 C80.5472519,4.03596465 72.9261069,0.276767677 64.2531298,0.276767677 L64.2531298,0.276767677 C47.0370229,0.276767677 25.6706107,15.0852222 0.552366412,39.5078939" id="path-12"></path>
        <path d="M0.552366412,39.5078939 L89.130916,136.826328 L179.448321,40.1652172 C138.150687,2.5670202 107.382366,-12.141798 87.0622901,12.218601 L87.0622901,12.218601 C80.5472519,4.03596465 72.9261069,0.276767677 64.2531298,0.276767677 L64.2531298,0.276767677 C47.0370229,0.276767677 25.6706107,15.0852222 0.552366412,39.5078939" id="path-14"></path>
        <path d="M0.552366412,39.5078939 L89.130916,136.826328 L179.448321,40.1652172 C138.150687,2.5670202 107.382366,-12.141798 87.0622901,12.218601 L87.0622901,12.218601 C80.5472519,4.03596465 72.9261069,0.276767677 64.2531298,0.276767677 L64.2531298,0.276767677 C47.0370229,0.276767677 25.6706107,15.0852222 0.552366412,39.5078939" id="path-16"></path>
        <path d="M0.552366412,39.5078939 L89.130916,136.826328 L179.448321,40.1652172 C138.150687,2.5670202 107.382366,-12.141798 87.0622901,12.218601 L87.0622901,12.218601 C80.5472519,4.03596465 72.9261069,0.276767677 64.2531298,0.276767677 L64.2531298,0.276767677 C47.0370229,0.276767677 25.6706107,15.0852222 0.552366412,39.5078939 L0.552366412,39.5078939 Z" id="path-18"></path>
        <linearGradient x1="50%" y1="0%" x2="50%" y2="100%" id="linearGradient-20">
            <stop stop-color="#80DCF2" offset="0%"></stop>
            <stop stop-color="#49B7E0" offset="100%"></stop>
        </linearGradient>
    </defs>
    <g id="Mobile" stroke="none" stroke-width="1" fill="none" fill-rule="evenodd">
        <g id="M-Challenge" transform="translate(-85.000000, -143.000000)">
            <g id="banner" transform="translate(16.000000, 108.000000)">
                <g id="vector-challenge" transform="translate(69.000000, 35.000000)">
                    <polygon id="Fill-1" fill="#49B7E0" points="76.1247292 158 30 158 38.2502527 166.333178 30 174 87 174"></polygon>
                    <polygon id="Fill-2" fill="#49B7E0" points="119.210179 158 171 158 161.736184 166.333495 171 174 107 174"></polygon>
                    <polygon id="Fill-3" fill="url(#linearGradient-1)" points="101 43 0 82.5305077 101 184 202 82.5305077"></polygon>
                    <polygon id="Fill-4" fill="#42312A" points="101.5 43 9 82.5305077 101.5 184 194 82.5305077"></polygon>
                    <g id="Group-29" transform="translate(15.000000, 44.000000)" fill="#FFFBDE">
                        <polygon id="Fill-5" points="0.635088492 34.3402174 37.615898 85.2784442 52.533029 101.644403 2.94930675 33.350857"></polygon>
                        <path d="M65.4470671,111.374591 L15.662198,27.9168465 L13.2958052,28.9276547 L61.7337456,110.132701 C62.9948607,110.560271 64.230575,110.974003 65.4470671,111.374591" id="Fill-7"></path>
                        <path d="M72.5152841,113.638981 L29.9668952,21.8021145 L27.5325381,22.8433645 L69.0985341,112.561062 C70.2690302,112.933975 71.4086333,113.294434 72.5152841,113.638981" id="Fill-9"></path>
                        <path d="M79.2167687,115.667585 L46.6261774,14.6815558 L44.1018877,15.7608581 L76.0375504,114.718352 C77.1448877,115.053213 78.208975,115.371469 79.2167687,115.667585" id="Fill-11"></path>
                        <polygon id="Fill-13" points="123.04268 98.6373012 159.599914 28.9544988 157.166244 27.9139407 116.027256 106.334249"></polygon>
                        <path d="M109.191833,113.340028 L144.133714,22.344464 L141.624528,21.2713884 L105.864329,114.40065 C106.935968,114.063714 108.046738,113.709481 109.191833,113.340028" id="Fill-15"></path>
                        <path d="M103.554299,115.119009 L129.822838,16.2265494 L127.233331,15.1195727 L100.421763,116.070317 C101.408275,115.775584 102.455886,115.457328 103.554299,115.119009" id="Fill-17"></path>
                        <path d="M98.6910766,116.584784 L115.175505,9.96562733 L112.494692,8.8199064 L95.700648,117.453761 C96.5958544,117.197773 97.598156,116.907883 98.6910766,116.584784" id="Fill-19"></path>
                        <path d="M93.8761159,117.970581 L98.0480246,2.64435988 L95.2505048,1.448825 L91.0037667,118.757918 C91.4925603,118.627156 92.4797587,118.361482 93.8761159,117.970581" id="Fill-21"></path>
                        <path d="M89.3239504,118.507326 L79.6277123,0.574175 L76.8844266,1.74687849 L86.4179623,117.721373 C87.6378869,118.057617 88.6141012,118.318448 89.3239504,118.507326" id="Fill-23"></path>
                        <path d="M84.5331548,117.197288 L62.5978532,7.85427674 L59.9726468,8.97647442 L81.5111468,116.335922 C82.6013214,116.65141 83.6111746,116.939224 84.5331548,117.197288" id="Fill-25"></path>
                        <polygon id="Fill-27" points="149.837909 69.2369674 172.563381 34.495886 170.183258 33.4781593 139.052183 81.0712407"></polygon>
                    </g>
                    <polygon id="Fill-30" fill="#E85B5B" points="38.9710025 128 20 128 93 167"></polygon>
                    <polygon id="Fill-31" fill="#E85B5B" points="164.027624 128 110 167 183 128"></polygon>
                    <g id="Group-107" transform="translate(19.000000, 0.000000)">
                        <path d="M0.56576569,127.068266 L30.6134477,143.106228 C36.0426025,144.710093 41.7565272,146.148895 47.7140502,147.402 L19.5190879,127.068266 L0.56576569,127.068266 Z" id="Fill-32" fill="#E85B5B"></path>
                        <path d="M144.80754,127.068266 L108.988979,152.899984 C111.306937,152.842899 113.597448,152.752802 115.864628,152.634507 L163.762234,127.068266 L144.80754,127.068266 Z" id="Fill-34" fill="#E85B5B"></path>
                        <polygon id="Fill-36" fill="#E85B5B" points="19.5191565 140.504212 0.56583431 140.504212 73.4978008 162.7066"></polygon>
                        <polygon id="Fill-38" fill="#E85B5B" points="144.80754 140.504212 90.8302678 162.7066 163.762234 140.504212"></polygon>
                        <path d="M0.56576569,140.504212 L30.6134477,149.650781 C36.0426025,150.565507 41.7565272,151.386697 47.7140502,152.101284 L19.5190879,140.504212 L0.56576569,140.504212 Z" id="Fill-40" fill="#E85B5B"></path>
                        <path d="M144.80754,140.504212 L108.988979,155.236798 C111.306937,155.204473 113.597448,155.152891 115.864628,155.08549 L163.762234,140.504212 L144.80754,140.504212 Z" id="Fill-42" fill="#E85B5B"></path>
                        <path d="M109.852621,16.668435 C109.852621,16.668435 101.106412,10.9063506 93.6255414,7.55556582 L93.9425623,6.22680633 C102.065709,8.78735063 112.991951,15.8224857 112.991951,15.8224857 C101.27247,35.4574519 83.5055749,50.0868738 83.5055749,50.0868738 L84.390077,48.7292283 C90.2309473,43.5820046 101.650562,30.4113295 109.852621,16.668435" id="Fill-44" fill="#FFDE80"></path>
                        <path d="M105.279148,11.3137131 C101.718495,9.39347679 97.5292904,7.35632068 93.9425623,6.22701266 L93.6255414,7.55577215 C97.3193155,9.21053165 101.32119,11.4526414 104.426211,13.2992869 C104.691767,12.5943291 104.975165,11.9299494 105.279148,11.3137131" id="Fill-46" fill="#FFAF73"></path>
                        <path d="M102.61679,27.6132316 C95.8461289,36.9860755 88.6417941,44.983392 84.3901456,48.7296409 L83.5049573,50.0872865 C83.5049573,50.0872865 93.5473841,41.8898308 103.173978,29.7686831 C103.042229,29.0685397 102.845978,28.3202527 102.61679,27.6132316" id="Fill-48" fill="#FFAF73"></path>
                        <path d="M93.9429054,6.22673755 L93.8983029,6.40624388 C101.934303,9.17105401 111.628144,16.6559865 111.628144,16.6559865 C108.858671,20.327957 107.012813,23.8493072 107.014872,24.6312945 C109.107073,22.1340245 111.731073,18.610611 113.528897,15.967535 C113.528897,15.967535 102.066052,8.78728186 93.9429054,6.22673755" id="Fill-50" fill="#FFFAC0"></path>
                        <path d="M53.3094008,16.7876245 C53.3094008,16.7876245 62.1894176,10.9863376 69.7917439,7.60666667 L69.4630577,6.27653165 C61.2040452,8.87352743 50.1089992,15.9561181 50.1089992,15.9561181 C62.1256017,35.5401899 80.2733339,50.0953333 80.2733339,50.0953333 L79.368246,48.7390633 C73.3983715,43.6165992 61.7186895,30.4968186 53.3094008,16.7876245" id="Fill-52" fill="#FFDE80"></path>
                        <path d="M57.9432586,11.4131637 C61.5615515,9.47779662 65.816631,7.42344641 69.4630577,6.27625654 L69.7917439,7.60639156 C66.0375849,9.27628186 61.9739531,11.5348979 58.8195264,13.3952987 C58.5484803,12.6924042 58.25479,12.0287122 57.9432586,11.4131637" id="Fill-54" fill="#FFAF73"></path>
                        <path d="M60.7215146,27.7008527 C67.6548033,37.0461861 75.0245105,45.0118654 79.3681088,48.738857 L80.2731967,50.095127 C80.2731967,50.095127 70.4283933,42.0084013 60.4058661,30.1692367 C60.5732971,29.2737684 60.6412301,28.6850426 60.7215146,27.7008527" id="Fill-56" fill="#FFAF73"></path>
                        <path d="M69.4631264,6.27639409 L69.5077289,6.45590042 C61.3406661,9.25647426 50.7142895,16.0226937 50.7142895,16.0226937 C55.5313607,22.4917992 58.6185406,27.1706557 58.5156117,27.4203139 C58.4291515,27.635584 55.1910092,23.81093 49.6191264,16.0054996 C49.6191264,16.0054996 61.2041138,8.87338987 69.4631264,6.27639409" id="Fill-58" fill="#FFFAC0"></path>
                        <polygon id="Fill-60" fill="#F49751" points="77.8099715 46.1284498 81.9552603 60.6148169 86.1087833 44.6366903"></polygon>
                        <polygon id="Fill-62" fill="#FFAF73" points="78.2824151 44.4761662 82.0118711 58.9522169 85.8250427 42.9672127"></polygon>
                        <polygon id="Fill-64" fill="#FFAF73" points="75.2180167 65.2692578 88.7833556 65.2410595 81.8974142 57.3290257"></polygon>
                        <path d="M81.9700134,51.6218249 C81.9700134,51.6218249 65.0162561,39.0130527 61.6985155,8.18541983 C61.6367582,7.61044937 61.5804904,7.02860127 61.5290259,6.44193882 C74.8871347,1.17435654 84.9734778,1.53405696 102.222984,4.77136076 C102.222984,4.77136076 102.184557,5.47012869 102.057612,6.71773207 C101.347403,13.674462 96.9413607,37.6402764 81.9700134,51.6218249" id="Fill-66" fill="#FFAF73"></path>
                        <path d="M81.9726895,52.3381308 C81.9726895,52.3381308 65.6502293,39.5443502 62.4512,8.26623207 C62.3921874,7.6836962 62.3379782,7.0942827 62.2865138,6.49867932 C75.1464469,1.15681857 84.8567565,1.52270886 101.464673,4.80746835 C101.464673,4.80746835 101.428991,5.51792827 101.305476,6.78272574 C100.624087,13.8412447 96.3827314,38.1557553 81.9726895,52.3381308" id="Fill-68" fill="#F49751"></path>
                        <path d="M81.9713858,51.6547 C77.7293439,47.9469658 65.6201054,32.8918181 63.4572268,6.35170422 C75.5499967,1.19897848 84.6784151,1.55317679 100.294783,4.72376751 C100.294783,4.72376751 100.259787,5.40946793 100.145193,6.628873 C99.5036033,13.4404848 95.5202561,37.9716409 81.9713858,51.6547" id="Fill-70" fill="#FFDE80"></path>
                        <path d="M81.9619849,47.3545262 C81.9619849,47.3545262 68.3980184,35.8351717 65.736964,7.67881308 C65.6896167,7.1533616 65.6436418,6.62378354 65.5997255,6.08664008 C76.2858008,1.27985949 84.3513071,1.60929831 98.1485791,4.5701211 C98.1485791,4.5701211 98.119759,5.21042911 98.0175163,6.3479903 C97.4514075,12.7036148 93.9319264,34.5889439 81.9619849,47.3545262" id="Fill-72" fill="#FFF297"></path>
                        <path d="M81.8447146,4.84812761 C86.241836,4.84199409 91.0067565,5.61366498 96.9073255,6.92798143 C96.9073255,6.92798143 96.8778192,7.54146667 96.7838109,8.63294768 C96.3419029,13.8104329 93.9265054,29.7397283 86.4291665,41.9186481 C95.3448653,29.9061671 98.1857021,13.7265257 98.6989741,8.54766498 C98.8053339,7.4802557 98.8382711,6.87915021 98.8382711,6.87915021 C92.1808318,5.59509536 86.8052,4.84061857 81.8447146,4.84812761" id="Fill-74" fill="#FFFAC0"></path>
                        <path d="M66.9816485,9.90730506 C66.9343013,9.4024865 66.8896987,8.89491688 66.8533305,8.37909409 C72.0910377,5.93409409 76.6473556,4.8763135 81.6771464,4.84742743 C75.9913556,4.87425021 70.7941339,4.63146962 64.8750377,7.03176498 C64.918954,7.53520802 65.0136485,9.31032616 65.065113,9.80345274 C66.7771632,26.1460941 72.8355565,36.5106932 77.2086611,42.041689 C73.39,36.2142671 68.430887,25.8400392 66.9816485,9.90730506" id="Fill-76" fill="#FFFAC0"></path>
                        <polygon id="Fill-78" fill="#F49751" points="76.3511264 65.2665755 87.647913 65.2431916 81.9120301 57.3284068"></polygon>
                        <polygon id="Fill-80" fill="#FFDE80" points="77.5211531 65.2642371 86.4793958 65.2456675 81.9251364 56.1981359"></polygon>
                        <path d="M101.824718,7.8665038 C101.93245,7.20625063 102.012735,6.62784135 102.069689,6.14571899 C102.198007,5.06180338 102.23712,4.45244473 102.23712,4.45244473 C84.9745757,1.64499325 74.8834293,1.33549958 61.512969,5.91669367 C61.5658059,6.42838987 61.6207013,6.93320844 61.6824586,7.43321266 C61.7009858,7.57764304 61.7215715,7.71794684 61.7400987,7.86168945 C75.9236971,5.67666414 86.1994293,6.10101435 101.824718,7.8665038" id="Fill-82" fill="#FFAF73"></path>
                        <path d="M60.5204603,6.74854388 L58.430318,3.07932447 C74.794636,0.138446835 85.8972301,-0.545190295 104.622736,2.98234979 L102.637582,6.56215992 C85.4429707,4.259527 76.1231046,3.78221899 60.5204603,6.74854388" id="Fill-84" fill="#FFF297"></path>
                        <path d="M102.508234,2.5978211 C102.522644,2.66453418 102.532251,2.73124726 102.532251,2.80002363 C102.537741,5.03869451 93.2082678,4.23607426 82.0617573,4.25945823 C70.9145607,4.28352996 62.1745272,5.12397722 62.1697238,2.88461857 C62.1697238,2.72299409 62.2198159,2.56687173 62.3090209,2.41074937 C61.0464268,2.61914177 59.7556987,2.83991392 58.4306611,3.0792557 L59.9862594,7.633627 C75.5882176,4.66798987 86.2331213,5.24020928 103.430477,7.54215443 L104.623079,2.98228101 C103.906008,2.84679156 103.203347,2.72024304 102.508234,2.5978211" id="Fill-86" fill="#FFDE80"></path>
                        <g id="Group-90" transform="translate(58.326360, 0.000000)">
                            <mask id="mask-3" fill="white">
                                <use xlink:href="#path-2"></use>
                            </mask>
                            <g id="Clip-89"></g>
                            <path d="M45.9831297,3.55023629 L46.2967197,2.98214346 C27.5712134,-0.545396624 16.4679331,0.138240506 0.104301255,3.07911814 L0.455631799,3.69466667 C16.3773556,0.92985654 27.8518661,0.32049789 45.9831297,3.55023629" id="Fill-88" fill="#FFFAC0" mask="url(#mask-3)"></path>
                        </g>
                        <path d="M99.9028301,3.83098143 C99.9014577,3.50635696 96.1472987,3.25325992 91.5161858,3.26288861 C86.8878176,3.2725173 83.1309138,3.5434962 83.1336571,3.86674515 C83.1336571,4.18930633 86.8898762,4.44446667 91.5189305,4.43552574 C96.1486711,4.42520928 99.9028301,4.15491814 99.9028301,3.83098143" id="Fill-91" fill="#FFFAC0"></path>
                        <path d="M80.9876611,3.86990886 C80.9869741,3.54665992 79.2838444,3.28943629 77.1840954,3.29287511 C75.0843464,3.29700169 73.3812167,3.56247848 73.3825883,3.88641519 C73.3839615,4.21103966 75.0870912,4.46895105 77.1868402,4.46688776 C79.2865891,4.46069789 80.9890326,4.19453333 80.9876611,3.86990886" id="Fill-93" fill="#FFFAC0"></path>
                        <path d="M90.0656435,8.15165063 C90.0656435,8.15165063 89.5029657,19.682697 90.1946477,24.1786084 C93.1109657,19.8725198 95.2326728,8.62895865 95.2326728,8.62895865 L90.0656435,8.15165063 Z" id="Fill-95" fill="#FFFAC0"></path>
                        <path d="M72.4169105,27.5970692 C76.0811782,39.5620945 81.9783163,44.7808456 81.9783163,44.7808456 C83.1798393,43.5504363 84.2777473,42.2079215 85.2864502,40.7897527 C81.6249272,38.0029342 77.0411615,33.7773139 72.4169105,27.5970692" id="Fill-97" fill="#FFDE80"></path>
                        <polygon id="Fill-99" fill="#FFFAC0" points="81.9210879 56.2917405 77.2789958 65.2643059 78.5923682 65.2622426 81.9320669 56.3089346"></polygon>
                        <polygon id="Fill-101" fill="#FFFAC0" points="81.9827766 56.4046025 85.4055046 65.2471806 86.7229941 65.2451173"></polygon>
                        <path d="M61.8767883,3.19459367 C61.8767883,2.9552519 61.8850226,2.71659789 61.9014912,2.47863165 C61.4314494,2.55634895 60.9579766,2.6368173 60.4803866,2.71934895 C60.4309808,2.72691435 60.3822611,2.73585527 60.3335414,2.74342068 C59.7043029,2.85208734 59.0730059,2.96212954 58.4307297,3.07973713 L59.986328,7.63410844 C60.9051397,7.45941646 61.8047381,7.29710422 62.6919849,7.14785949 C62.1684201,5.89337848 61.8795331,4.56805781 61.8767883,3.19459367" id="Fill-103" fill="#FFAF73"></path>
                        <path d="M103.304286,2.74121983 C102.810228,2.65043502 102.324403,2.56446456 101.839951,2.48193291 C101.852303,2.69032532 101.862596,2.89940549 101.862596,3.10986118 C101.866027,4.54109747 101.563416,5.92143924 101.00211,7.22543924 C101.800152,7.32654051 102.605742,7.43245612 103.430546,7.54249831 L104.623148,2.98262489 C104.177123,2.89802996 103.740018,2.81824937 103.304286,2.74121983" id="Fill-105" fill="#FFAF73"></path>
                    </g>
                    <g id="Group-252" transform="translate(11.000000, 43.000000)">
                        <g id="Group-110">
                            <mask id="mask-5" fill="white">
                                <use xlink:href="#path-4"></use>
                            </mask>
                            <g id="Clip-109"></g>
                            <path d="M88.2121603,39.2355545 C88.1304046,38.846696 91.4817023,37.2843424 91.3497939,35.9420192 C91.1773511,34.1720899 89.5655954,36.0305848 88.5948321,34.257196 C88.3392595,33.7908424 88.4526183,32.1717515 88.0376565,31.8285596 C87.6206336,31.4819081 85.7450611,33.426201 85.1411679,34.6785747 C84.8210153,35.3476606 85.9312443,40.4394939 86.7879618,44.2374384 C87.452313,47.1684081 89.013916,43.0895444 88.2121603,39.2355545" id="Fill-108" fill="#EF8F6F" mask="url(#mask-5)"></path>
                        </g>
                        <g id="Group-113">
                            <mask id="mask-7" fill="white">
                                <use xlink:href="#path-6"></use>
                            </mask>
                            <g id="Clip-112"></g>
                            <path d="M96.8294885,85.3110071 C108.89842,83.2850677 128.420176,73.7746384 133.368802,59.7411333 C138.314679,45.709704 130.873534,35.9266586 127.775748,35.9183125 C119.701168,35.8934465 106.953458,46.6673202 92.0986489,72.5824616 C90.0210916,76.2074263 88.9259771,86.6374162 96.8294885,85.3110071" id="Fill-111" fill="#FFDEB3" mask="url(#mask-7)"></path>
                        </g>
                        <g id="Group-116">
                            <mask id="mask-9" fill="white">
                                <use xlink:href="#path-8"></use>
                            </mask>
                            <g id="Clip-115"></g>
                            <path d="M132.782084,40.3734157 C132.586969,42.2429813 132.172695,44.1928096 131.463,46.2000672 C126.56384,60.0972641 104.876588,69.3406126 92.7355191,71.4876379 C92.523916,71.8529712 92.3102519,72.2106934 92.0986489,72.582254 C90.0210916,76.2072187 87.901626,87.9103399 95.8058244,86.5846227 C107.874069,84.5572995 129.948115,75.2634409 134.893992,61.2306278 C137.955366,52.5498096 135.688878,44.9283197 132.782084,40.3734157" id="Fill-114" fill="#EF8F6F" mask="url(#mask-9)"></path>
                        </g>
                        <g id="Group-119">
                            <mask id="mask-11" fill="white">
                                <use xlink:href="#path-10"></use>
                            </mask>
                            <g id="Clip-118"></g>
                            <path d="M109.095939,5.31871364 C100.938229,6.52265303 100.518458,11.6241732 99.5744885,18.2755924 C100.533573,15.436648 101.877389,13.7213803 103.463725,12.8073551 C102.968382,14.6513197 102.890748,16.6800268 103.005481,18.1897944 C104.418,14.6381732 106.468763,12.8862338 108.939985,12.1811682 C117.308611,13.886749 127.440137,24.5201631 127.538382,18.0175066 C127.795328,0.739592424 115.528534,4.36870859 109.095939,5.31871364" id="Fill-117" fill="#873525" mask="url(#mask-11)"></path>
                        </g>
                        <g id="Group-122">
                            <mask id="mask-13" fill="white">
                                <use xlink:href="#path-12"></use>
                            </mask>
                            <g id="Clip-121"></g>
                            <path d="M104.18345,13.427799 C103.76574,13.2658899 103.443527,13.4921475 103.261466,13.7730667 C102.964672,15.3361121 102.910397,16.9399808 103.005206,18.1895869 C103.023069,18.1494556 103.042305,18.1155515 103.05742,18.0747283 C103.027191,16.7061121 103.60429,14.7237636 104.18345,13.427799" id="Fill-120" fill="#AF5B45" mask="url(#mask-13)"></path>
                        </g>
                        <g id="Group-125">
                            <mask id="mask-15" fill="white">
                                <use xlink:href="#path-14"></use>
                            </mask>
                            <g id="Clip-124"></g>
                            <path d="M109.095939,8.86002525 C113.998534,8.13558586 121.323573,8.70503535 124.962733,13.3305152 C125.71571,14.2874394 126.377313,16.8295505 128.049527,15.7923636 C126.764107,0.178515152 116.278763,3.74189899 108.880901,5.10221212 C100.769908,6.59468182 99.7036489,11.7114242 99.5744885,18.2756616 C99.6761679,17.9788283 99.7812824,17.7006768 99.8912061,17.4280606 C100.729374,11.5827273 101.617695,9.96432828 109.095939,8.86002525" id="Fill-123" fill="#AF5B45" mask="url(#mask-15)"></path>
                        </g>
                        <g id="Group-128">
                            <mask id="mask-17" fill="white">
                                <use xlink:href="#path-16"></use>
                            </mask>
                            <g id="Clip-127"></g>
                            <path d="M89.3688321,84.7924136 C83.1931832,79.3753783 83.4968473,48.6084995 85.9234122,37.0742066 L87.0027252,36.6984944 C89.8153969,47.8556914 96.6169237,57.611752 100.747305,65.0429641 C110.445321,82.4973177 96.476771,91.0307571 89.3688321,84.7924136" id="Fill-126" fill="#EF8F6F" mask="url(#mask-17)"></path>
                        </g>
                        <mask id="mask-19" fill="white">
                            <use xlink:href="#path-18"></use>
                        </mask>
                        <g id="Clip-157"></g>
                        <polygon id="Fill-156" fill="#6D4A3E" mask="url(#mask-19)" points="133.069466 139.084753 163.947023 139.084753 163.947023 137.918869 133.069466 137.918869"></polygon>
                        <polygon id="Fill-158" fill="#997667" mask="url(#mask-19)" points="133.981695 126.589315 121.887344 182.23484 123.174824 182.23484 137.328183 126.589315"></polygon>
                        <polygon id="Fill-159" fill="#997667" mask="url(#mask-19)" points="163.720305 126.589315 175.410687 182.23484 174.16855 182.23484 160.485802 126.589315"></polygon>
                        <path d="M132.43658,127.565751 L164.860626,127.565751 C164.860626,127.565751 168.206427,121.272746 152.509328,120.297832 C136.812916,119.32015 130.637267,124.636857 132.43658,127.565751" id="Fill-160" fill="#BF9F94" mask="url(#mask-19)"></path>
                        <polygon id="Fill-161" fill="#6D4A3E" mask="url(#mask-19)" points="11.1294275 126.848508 15.613626 182.494033 14.3708015 182.494033 7.89492366 126.848508"></polygon>
                        <polygon id="Fill-162" fill="#6D4A3E" mask="url(#mask-19)" points="-6.91900763 126.848508 -11.4038931 182.494033 -10.1596947 182.494033 -3.68381679 126.848508"></polygon>
                        <polygon id="Fill-163" fill="#6D4A3E" mask="url(#mask-19)" points="-13.3467939 139.344914 17.5321374 139.344914 17.5321374 138.178338 -13.3467939 138.178338"></polygon>
                        <path d="M-13.9777557,127.825221 L18.444916,127.825221 C18.444916,127.825221 21.7907176,121.531524 6.09361832,120.55661 C-9.60141985,119.57962 -15.7791298,124.896327 -13.9777557,127.825221" id="Fill-164" fill="#997667" mask="url(#mask-19)"></path>
                        <polygon id="Fill-165" fill="#997667" mask="url(#mask-19)" points="-12.4333282 126.848508 -24.5276794 182.494033 -23.2401985 182.494033 -9.08821374 126.848508"></polygon>
                        <polygon id="Fill-166" fill="#997667" mask="url(#mask-19)" points="17.3025344 126.848508 28.9956641 182.494033 27.7521527 182.494033 14.0721527 126.848508"></polygon>
                        <path d="M153.896634,120.499941 L157.995412,105.49083 L149.795107,95.1590929 L108.624573,110.449123 L93.9325878,125.822184 L85.7432748,182.494517 L88.8211374,182.421866 C89.5857939,176.725295 90.4658702,171.577416 91.4084656,166.93533 L102.351366,145.428406 L104.821901,128.924749 C105.352282,128.535891 106.188389,128.062618 107.276634,127.531916 L153.896634,120.499941 Z" id="Fill-167" fill="#4F3B38" mask="url(#mask-19)"></path>
                        <polygon id="Fill-168" fill="#664E4C" mask="url(#mask-19)" points="95.6480153 130.834101 109.90855 114.362964 135.772214 103.279111 136.542366 100.082444 108.192366 109.352777 93.9325191 125.82253 85.7432061 182.494171 88.1896947 182.437434"></polygon>
                        <polygon id="Fill-169" fill="#495E6D" mask="url(#mask-19)" points="47.6872214 182.49424 57.1509618 85.7030485 106.297832 85.7030485 123.044015 182.49424"></polygon>
                        <polygon id="Fill-170" fill="#6D8BA3" mask="url(#mask-19)" points="51.5993359 182.49424 60.0813206 89.9763414 104.122924 89.9763414 119.130252 182.49424"></polygon>
                        <polygon id="Fill-171" fill="#83A2B7" mask="url(#mask-19)" points="58.580313 182.49424 85.7156565 89.9763414 102.935885 89.9763414 97.0219924 182.49424"></polygon>
                        <polygon id="Fill-172" fill="#CEE3EA" mask="url(#mask-19)" points="107.638008 84.6204717 55.657855 84.6204717 56.8622061 88.248896 106.949611 89.1117192"></polygon>
                        <polygon id="Fill-173" fill="#DCF8FF" mask="url(#mask-19)" points="107.373023 86.3468793 107.638214 84.6205409 55.6580611 84.6205409 56.2324122 86.3468793"></polygon>
                        <path d="M43.8535649,53.2938995 C43.8535649,53.2938995 49.4624198,40.5695056 61.255855,41.9602631 C68.8831832,42.8562985 59.1137176,13.9693641 53.0108931,20.0527177 C37.0650916,35.9440258 22.2501298,36.5162429 22.2501298,36.5162429 C22.2501298,36.5162429 27.7586794,50.6217076 43.8535649,53.2938995" id="Fill-174" fill="#EF8F6F" mask="url(#mask-19)"></path>
                        <path d="M56.8996489,172.717837 L49.7511756,126.110161 L49.7621679,126.058267 L49.7401832,126.036817 L49.7388092,126.03059 L49.7312519,126.026438 L34.9547634,109.898494 L5.56598473,96.9686 L-11.9318015,101.118731 L-15.2782901,111.616529 L-8.71516031,121.593312 L30.6560611,124.443327 C34.9533893,125.91158 38.4365954,128.044075 39.7893435,128.978858 L40.9469771,144.398277 L52.0568244,169.186282 C53.1924733,173.659539 55.1271298,177.104605 56.2236183,182.493964 L58.5746107,182.493964 C58.5746107,182.493964 57.9507939,178.554176 56.8996489,172.717837" id="Fill-175" fill="#684238" mask="url(#mask-19)"></path>
                        <path d="M54.185771,167.58352 L42.6815725,142.976798 L41.7733282,127.517939 C40.4384427,126.553404 37.205313,125.078232 32.9389008,123.520722 L-5.2410229,119.000414 L-7.81529771,114.466268 C5.69432061,113.299 18.4317252,106.172924 17.6615725,101.508005 L-13.733313,100.855525 L-16.5494198,111.48202 L-9.70117557,122.456551 L29.9022595,125.577798 C34.2016489,127.046742 37.4643206,128.454106 38.8177557,129.387505 L40.0482137,144.826298 L52.056687,169.186697 C53.1930229,173.659263 55.1269924,177.10502 56.2234809,182.494379 L57.5982137,182.494379 C56.6095878,177.333354 55.1737099,171.831904 54.185771,167.58352" id="Fill-176" fill="#4F2E28" mask="url(#mask-19)"></path>
                        <path d="M127.880382,126.776202 L158.76,120.036909 L166.992595,109.153712 L168.193511,101.723884 L158.60542,89.3565202 L136.455802,105.242985 C136.455802,105.242985 119.730229,123.631429 118.604885,125.529364 C117.243893,129.060919 117.931603,136.277636 117.931603,136.277636 L152.160458,181.328495 L154.68458,181.328495 C152.567176,177.73951 151.383435,175.364152 150.181832,173.291162 L136.972443,143.879753 L125.306107,134.550606 C124.494733,131.704742 124.274198,129.631061 124.449389,129.02148 C124.560687,128.633313 126.725496,127.360182 127.880382,126.776202" id="Fill-177" fill="#664E4C" mask="url(#mask-19)"></path>
                        <path d="M151.595382,92.5670944 L138.472557,102.673958 L150.702252,106.274014 C152.525611,106.810251 154.002023,108.162953 154.703473,109.939802 C155.405611,111.717342 155.25584,113.721832 154.296756,115.372751 L123.533931,127.065493 C122.383855,127.650165 121.670038,128.165645 121.560115,128.553812 C121.38355,129.163392 121.48042,130.84614 122.291107,133.692004 L133.711489,144.656847 L146.576679,171.349014 C147.582481,173.085039 150.645916,177.747882 152.861565,181.326488 L154.682863,181.326488 C152.567519,177.738195 151.382405,175.362837 150.180802,173.289847 L138.175076,142.395655 L126.151489,134.210251 C125.339427,131.364387 125.245305,129.68164 125.417748,129.072059 C125.531794,128.683892 126.241489,128.167721 127.395687,127.583741 L160.130954,121.419433 L168.535305,109.364817 L169.049198,101.763392 L151.595382,92.5670944 Z" id="Fill-178" fill="#4F3B38" mask="url(#mask-19)"></path>
                        <path d="M-12.6164885,104.315467 C-10.7464122,91.6159823 3.31282443,56.940452 7.88496183,46.9173106 C12.1905344,37.478149 25.979771,33.6193157 33.1268702,32.9869015 C44.7231298,31.9538662 60.5507634,53.5161439 55.4530534,63.782149 C52.5393893,69.6530833 46.5698473,76.5286843 39.0180916,82.5463056 C33.8716031,81.5105025 24.2470992,80.3148662 16.0309924,100.514063 C14.0496183,105.385866 -13.588626,110.916376 -12.6164885,104.315467" id="Fill-179" fill="#A0455F" mask="url(#mask-19)"></path>
                        <path d="M39.5321908,81.9416374 C40.047458,71.8347737 55.1434122,48.8568293 47.2522672,42.4641879 C42.1140229,38.301602 35.0734122,37.7999606 22.8924962,48.1662939 C18.1005115,52.2444657 10.5405115,46.2316879 14.2504351,39.603102 C11.5257023,41.5397838 9.23860305,43.953198 7.88516794,46.9173798 C3.31234351,56.9405212 -13.5417023,93.367299 -15.4138397,106.066092 C-16.383229,112.667001 15.6114275,107.272107 17.5934885,102.400304 C25.8082214,82.2011071 33.8718092,81.5098798 39.0182977,82.5463747 C39.2731832,82.3436424 39.5218855,82.1374505 39.7726489,81.9326424 C39.6922672,81.9333343 39.6125725,81.9416374 39.5321908,81.9416374" id="Fill-180" fill="#893652" mask="url(#mask-19)"></path>
                        <path d="M169.22384,102.760725 C172.139565,80.4740076 169.965137,50.2848813 165.879412,40.0742298 C162.027275,30.456553 142.003305,29.8006136 135.05613,31.2750934 C121.223611,34.2053712 113.699336,40.8069722 116.853458,56.2049419 C118.239183,62.9656843 122.045977,68.3294419 127.02071,74.6003056 C133.19842,74.0813662 141.088878,83.0659369 137.143305,97.9235177 C135.795366,102.995977 168.357504,109.37478 169.22384,102.760725" id="Fill-181" fill="#5E4A5E" mask="url(#mask-19)"></path>
                        <path d="M124.447947,59.1370187 C124.447947,59.1370187 117.243824,47.0858621 124.447947,35.1640944 C124.447947,35.1640944 138.859626,30.8880338 148.636649,32.0553015 C148.636649,32.0553015 136.671458,49.4183217 138.729779,58.877549 L124.447947,59.1370187 Z" id="Fill-182" fill="#EF8F6F" mask="url(#mask-19)"></path>
                        <path d="M125.351656,58.4775505 C125.351656,58.4775505 118.601656,47.0283636 124.833641,35.6829646 C124.833641,35.6829646 139.020664,31.2034798 147.478603,32.3140101 C147.478603,32.3140101 136.177076,49.2272828 137.958527,58.2298434 L125.351656,58.4775505 Z" id="Fill-183" fill="#FFDEB3" mask="url(#mask-19)"></path>
                        <path d="M165.879275,40.0744374 C164.372634,36.310397 160.401641,33.0265485 155.713397,34.5155586 C134.096908,41.3849323 150.027595,72.7413263 147.950725,75.6356242 C146.048359,78.2898263 134.779809,73.4014172 126.931947,74.4835788 C126.961489,74.5237101 126.989656,74.5603818 127.020573,74.5998212 C130.511336,74.3057556 134.546908,77.0485232 136.687672,82.1687253 C154.47126,82.5465131 164.277137,98.5775889 158.583092,105.487786 C164.251031,105.871801 168.904237,105.205483 169.223702,102.760932 C172.139427,80.4742152 169.965,50.2850889 165.879275,40.0744374" id="Fill-184" fill="#463247" mask="url(#mask-19)"></path>
                        <path d="M145.892542,50.7559399 C145.892542,60.1086116 152.410328,77.0177328 161.847275,76.4987934 C171.280786,75.980546 168.193305,52.3099904 165.106511,47.4734753 C162.016969,42.637652 145.892542,43.5004753 145.892542,50.7559399" id="Fill-185" fill="#342335" mask="url(#mask-19)"></path>
                        <path d="M146.625183,50.4130247 C146.625183,59.4723227 152.748618,75.8535096 161.60984,75.3518682 C170.469,74.8495348 167.568389,51.917949 164.669153,47.2315803 C161.769916,42.5459035 146.625183,43.3824338 146.625183,50.4130247" id="Fill-186" fill="#E0725C" mask="url(#mask-19)"></path>
                        <path d="M75.5572672,83.7559187 C82.990855,79.4936965 87.6509313,48.5109389 88.8140611,37.2963126 L87.8171908,36.7462369 C82.4357405,47.2073631 73.3780305,55.616949 67.5307786,62.201252 C53.801313,77.6670298 67.001084,88.6671611 75.5572672,83.7559187" id="Fill-187" fill="#FFDEB3" mask="url(#mask-19)"></path>
                        <path d="M21.6480916,81.294347 C16.9234351,78.8920035 24.0932061,46.8263924 34.6431298,45.0121803 C39.8892366,44.1113015 50.4659542,53.5670692 47.6374809,63.6718571 C44.7774046,73.8928874 28.4420611,84.7470237 21.6480916,81.294347" id="Fill-188" fill="#682A3E" mask="url(#mask-19)"></path>
                        <path d="M22.773916,79.644604 C18.2794122,77.3598869 25.0994885,46.8614727 35.133458,45.1358263 C40.1219313,44.2778465 50.1820076,53.272104 47.492313,62.8828616 C44.7723893,72.6043263 29.2339924,82.9298364 22.773916,79.644604" id="Fill-189" fill="#E0725C" mask="url(#mask-19)"></path>
                        <path d="M63.9234962,39.3163015 L61.0627328,29.7657409 L53.5631908,19.6055995 C53.3756336,19.7266854 53.1908244,19.8712965 53.0108244,20.0525793 C46.3728092,26.6680187 39.9340305,30.6230288 34.6741832,32.9921601 C34.1520458,32.9547965 33.6333435,32.9409581 33.1270076,32.9873167 C30.709374,33.2011197 27.528458,33.7947864 24.2170076,34.8382005 C23.6378473,34.867953 23.0552519,34.9101601 22.4719695,34.9606702 C25.8974656,36.7209126 35.088458,36.4448369 39.018229,37.7996146 C45.2804427,39.9577106 50.1686107,45.6605086 52.4852519,49.8064884 L53.5027328,48.9249833 C52.7531908,47.4802561 51.888229,46.0521348 50.9243359,44.680751 C53.5913588,42.7842005 57.0230382,41.4619429 61.2557863,41.9601247 C61.3615878,41.9732712 61.4529618,41.9594328 61.5518931,41.9601247 L63.7586107,40.0504278 C63.827313,39.8227864 63.8809008,39.577847 63.9234962,39.3163015" id="Fill-190" fill="#BC5642" mask="url(#mask-19)"></path>
                        <path d="M63.0962519,46.3300788 C65.9157939,38.8649626 70.6431985,28.8355939 67.388771,16.9498061 C67.388771,16.9498061 59.1046489,6.49767475 48.4365573,22.6629828 C48.4365573,22.6629828 48.3657939,32.2695889 48.2242672,36.7705232 C48.0868626,41.2700737 58.6422824,47.3638061 63.0962519,46.3300788" id="Fill-191" fill="#FFDEB3" mask="url(#mask-19)"></path>
                        <path d="M53.8851985,29.6865162 C54.0033664,25.8498242 54.0741298,18.3217434 54.0940534,16.1795616 C52.3146641,17.5820818 50.4171069,19.6619909 48.4364198,22.6635364 C48.4364198,22.6635364 47.9926031,32.6942889 47.8531374,37.1945313 C47.7164198,41.6947737 58.7541298,48.1628343 63.2053511,47.1284152 C64.0297786,44.9509455 64.9016107,41.7480515 65.8022977,39.1498949 C60.7169542,32.0113646 53.7732137,33.3633747 53.8851985,29.6865162" id="Fill-192" fill="#D1B899" mask="url(#mask-19)"></path>
                        <path d="M125.106115,43.7407788 C125.106115,43.7407788 123.18726,36.0549404 112.486191,36.1628798 C105.567183,36.2320717 119.707489,7.46207172 124.621076,14.1660768 C137.457412,31.6813192 143.064893,32.0072131 143.064893,32.0072131 C143.064893,32.0072131 141.366573,43.9822586 125.106115,43.7407788" id="Fill-193" fill="#FFDEB3" mask="url(#mask-19)"></path>
                        <path d="M113.12684,42.8093864 C119.048977,40.5634167 127.151725,32.6997551 128.307298,28.8831288 C129.464931,25.0665025 125.712412,9.44919444 124.200962,8.5137197 C122.690198,7.58447222 109.275389,8.15668939 107.666382,11.0329975 C106.056687,13.9113813 106.252489,35.7289773 113.12684,42.8093864" id="Fill-194" fill="#FFDEB3" mask="url(#mask-19)"></path>
                        <path d="M112.643725,21.8818061 C112.681511,23.0490737 113.681817,24.3125182 114.53716,24.0855687 C115.390443,23.8586192 114.685557,21.3960788 114.685557,21.3960788 L112.643725,21.8818061 Z" id="Fill-195" fill="#5B3D35" mask="url(#mask-19)"></path>
                        <path d="M107.609153,22.9544884 C107.712893,24.1169126 108.783962,25.3201601 109.623504,25.0447763 C110.465794,24.7707763 109.623504,22.3525187 109.623504,22.3525187 L107.609153,22.9544884 Z" id="Fill-196" fill="#5B3D35" mask="url(#mask-19)"></path>
                        <path d="M195.925122,69.5391242 C191.440924,58.0719475 177.81245,38.2678364 163.15413,36.3193919 C148.498557,34.3681798 145.288786,48.9711343 145.924969,52.0231899 C147.58413,59.9788768 154.343748,65.8864828 182.604435,75.1180687 C186.558252,76.4112657 198.856649,77.0471394 195.925122,69.5391242" id="Fill-197" fill="#FFDEB3" mask="url(#mask-19)"></path>
                        <path d="M195.925122,69.5391242 C191.90329,59.2537455 180.524817,42.2726646 167.646573,37.4721293 C177.81726,43.9090535 186.288939,58.3805434 189.594206,66.8399475 C192.30726,73.7854323 181.383595,74.1127101 177.72726,72.9163818 C165.998405,69.0852253 158.191076,65.6906697 152.995122,62.4469525 C158.39787,66.6704273 167.336725,72.2071646 182.859321,77.2775485 C186.813824,78.5700535 198.856649,77.0471394 195.925122,69.5391242" id="Fill-198" fill="#EF8F6F" mask="url(#mask-19)"></path>
                        <path d="M54.1347939,30.9203465 C54.1347939,30.9203465 67.0838015,15.0207354 60.3660916,13.0314677 C53.6511298,11.0428919 47.9536489,21.7413465 47.9536489,21.7413465 L48.4531145,29.2472859 L54.1347939,30.9203465 Z" id="Fill-199" fill="#913E2D" mask="url(#mask-19)"></path>
                        <path d="M48.1897099,31.2004354 C45.221771,28.9350919 45.6394809,21.9660818 49.4380305,22.1577434 C53.2379542,22.3494051 52.1861221,28.5759859 51.3939847,29.9674354 C50.5990992,31.3568091 50.3943664,32.8811071 48.1897099,31.2004354" id="Fill-200" fill="#FFDEB3" mask="url(#mask-19)"></path>
                        <path d="M48.4957099,30.0250722 C46.5349466,28.5270672 46.818,23.9244207 49.3304427,24.0524258 C51.8401374,24.1783551 51.1407481,28.2911227 50.6165496,29.2092995 C50.088229,30.1281682 49.9521985,31.1342187 48.4957099,30.0250722" id="Fill-201" fill="#EF8F6F" mask="url(#mask-19)"></path>
                        <path d="M48.9935267,30.9058162 C47.7472672,29.9551192 47.9162748,27.0352202 49.5067328,27.1154828 C51.0992519,27.1964374 50.6664275,29.8063566 50.3325344,30.3889525 C50.0034504,30.9708566 49.9189466,31.6108818 48.9935267,30.9058162" id="Fill-202" fill="#FFDEB3" mask="url(#mask-19)"></path>
                        <path d="M129.981023,54.6000354 C138.701405,54.3959192 141.173313,36.2012121 155.365145,32.4053434 C150.37942,30.9453939 144.640718,30.5385455 140.178504,30.713601 C137.312931,28.9042323 132.239954,24.5638232 124.62087,14.1656616 C124.074,13.417697 123.406214,13.1319343 122.669038,13.177601 L119.56026,34.6457778 C119.366519,35.4933788 119.128809,36.3755758 118.871176,37.2729949 C119.455832,37.5144747 119.993771,37.7843232 120.476748,38.0742374 C116.985985,45.2715808 119.813084,54.8394394 129.981023,54.6000354" id="Fill-203" fill="#BC5642" mask="url(#mask-19)"></path>
                        <path d="M111.409282,45.2290278 C116.214321,44.1925328 129.680656,36.8478106 129.079511,28.2098914 C128.480427,19.5712803 126.249664,15.5117904 126.249664,15.5117904 L123.333939,17.0665328 C123.333939,17.0665328 124.566458,22.9582247 119.643939,25.2311793 C113.46829,28.0811944 115.828214,29.8511237 111.025237,29.1605884 C109.739817,28.975846 108.666,30.6731237 107.981038,30.4129621 C107.208824,34.3645126 111.409282,45.2290278 111.409282,45.2290278" id="Fill-204" fill="#AF5B45" mask="url(#mask-19)"></path>
                        <path d="M129.079305,28.2098222 C128.480221,19.5712111 126.249458,15.5117212 126.249458,15.5117212 L124.641824,16.3690091 C125.340527,18.373499 126.275565,21.8870646 126.637626,27.0439384 C127.139153,34.2710343 117.644496,42.1616808 111.718237,45.1542313 C116.756863,43.8914788 129.667397,36.6733778 129.079305,28.2098222" id="Fill-205" fill="#9B4534" mask="url(#mask-19)"></path>
                        <path d="M107.07513,8.63570505 C108.322763,7.70230606 123.257267,-1.2878 126.07887,10.0693616 C127.792992,16.9802505 127.795053,21.4721899 127.795053,21.4721899 L124.019863,19.2255283 C119.817344,7.04567475 112.153603,8.4246697 107.07513,8.63570505" id="Fill-206" fill="#AF5B45" mask="url(#mask-19)"></path>
                        <path d="M124.466084,18.2198929 C125.365397,15.6971556 127.728069,14.2240596 128.909748,16.2894384 C130.088679,18.3555091 128.638374,22.8841202 126.869977,22.8952505 C125.102954,22.9090293 123.650588,20.5108374 124.466084,18.2198929" id="Fill-207" fill="#FFDEB3" mask="url(#mask-19)"></path>
                        <path d="M125.079939,18.8881485 C125.668718,17.2469162 127.211771,16.2893 127.977802,17.6330071 C128.743832,18.978098 127.792992,21.9229061 126.640168,21.9312368 C125.488031,21.9388202 124.545435,20.3785424 125.079939,18.8881485" id="Fill-208" fill="#EF8F6F" mask="url(#mask-19)"></path>
                        <path d="M125.291267,20.0213045 C125.697298,18.887249 126.764244,18.2250823 127.293252,19.1536379 C127.825008,20.0821934 127.167527,22.1185116 126.369893,22.1240682 C125.575008,22.1295823 124.921649,21.0515722 125.291267,20.0213045" id="Fill-209" fill="#FFDEB3" mask="url(#mask-19)"></path>
                        <path d="M109.569573,22.6977172 C109.569573,22.6977172 116.542168,21.8134444 116.800489,20.9886768 C117.056061,20.1639091 117.523237,17.3339596 116.107282,17.493101 C114.690641,17.6508586 109.092779,21.1526616 109.092779,21.1526616 L109.569573,22.6977172 Z" id="Fill-210" fill="#AF5B45" mask="url(#mask-19)"></path>
                        <path d="M111.275725,21.9916136 C111.275725,21.9916136 106.375878,24.2528056 106.036489,23.7643106 C105.697786,23.2765076 104.816336,21.431851 105.808397,20.9571944 C106.79771,20.4825379 111.288779,20.6797348 111.288779,20.6797348 L111.275725,21.9916136 Z" id="Fill-211" fill="#AF5B45" mask="url(#mask-19)"></path>
                        <path d="M88.3598015,37.0429318 C86.4821679,51.8797551 80.1017863,77.3652146 73.7962901,80.9798005 C70.3659847,82.9483106 66.0377405,82.2536237 62.963313,79.7225833 C65.5314046,84.8206439 71.8568244,87.0673056 76.5210229,84.3895783 C83.9539237,80.1273561 88.5927023,49.0159015 88.8139237,37.2961742 L88.3598015,37.0429318 Z" id="Fill-212" fill="#EF8F6F" mask="url(#mask-19)"></path>
                        <path d="M68.0932443,20.6091591 C67.4220229,21.5079621 63.5918702,13.7833763 61.0182824,13.5252904 C61.0182824,13.5252904 63.2909542,12.3158157 65.1342366,13.1364318 C66.9802672,13.9563561 71.5249237,16.0307298 68.0932443,20.6091591" id="Fill-213" fill="#913E2D" mask="url(#mask-19)"></path>
                        <path d="M65.7504275,39.0406409 C65.7504275,39.0406409 70.144626,40.4383177 70.5266107,39.8266611 C70.9092824,39.2143126 67.4940916,25.3164237 67.4940916,25.3164237 C67.4940916,25.3164237 64.8270687,38.1660551 65.7504275,39.0406409" id="Fill-214" fill="#FFDEB3" mask="url(#mask-19)"></path>
                        <path d="M68.0020076,27.458398 C68.0020076,27.458398 67.9910153,27.5054485 67.9752137,27.5905545 C68.732313,31.1352566 70.2856718,38.8010293 69.9737634,39.3026707 C69.6611679,39.8001606 66.362084,38.7754283 65.2662824,38.4467667 C65.2958244,38.6398121 65.6819313,38.9740091 65.7506336,39.0404333 C65.7506336,39.0404333 70.144145,40.4381101 70.5268168,39.8264535 C70.9088015,39.214797 68.0020076,27.458398 68.0020076,27.458398" id="Fill-215" fill="#EF8F6F" mask="url(#mask-19)"></path>
                        <path d="M68.31,29.2899081 C68.31,29.2899081 64.1067939,27.9081455 64.1067939,27.0439384 C64.1067939,26.1804232 64.3637405,23.2432263 65.2218321,23.502696 C66.0792366,23.7607818 68.909771,27.7351657 68.909771,27.7351657 L68.31,29.2899081 Z" id="Fill-216" fill="#AF5B45" mask="url(#mask-19)"></path>
                        <path d="M65.1700992,28.2229687 L66.7378855,29.0947869 C66.7378855,29.0947869 65.1007099,30.9934131 64.5998702,30.2648222 C64.0990305,29.5376152 65.1700992,28.2229687 65.1700992,28.2229687" id="Fill-217" fill="#5B3D35" mask="url(#mask-19)"></path>
                        <path d="M64.6648626,39.3544955 C64.227916,40.6546116 63.8933359,41.7333136 62.8628015,42.809248 C61.4454733,42.3823338 60.0357023,41.6025409 58.737229,40.2221621 C58.6245573,38.0114803 58.7866947,36.4256015 59.7334122,34.8618641 C61.705855,35.6001419 63.5738702,37.3361672 64.6648626,39.3544955" id="Fill-218" fill="#5B3D35" mask="url(#mask-19)"></path>
                        <path d="M64.3314504,39.0189838 C63.629313,39.5787465 63.0638931,40.361999 62.7217557,42.5221707 C61.4315267,42.0973323 60.1474809,41.3140798 58.9664885,39.9170949 C60.2312977,38.2890091 60.7287023,36.8152212 59.9248855,35.0992616 C61.5641221,35.9738475 63.3016031,37.4324131 64.3314504,39.0189838" id="Fill-219" fill="#FFF4D7" mask="url(#mask-19)"></path>
                        <path d="M70.0483053,84.2366641 C58.066626,82.490952 34.7030382,77.6004672 28.0183053,64.364053 C21.3315115,51.1276389 36.9097557,41.485053 40.0446412,41.0588308 C48.2160916,39.9420732 55.6215115,46.3520126 73.7554809,70.0204924 C76.2940305,73.3313258 78.1112061,85.4136187 70.0483053,84.2366641" id="Fill-220" fill="#FFDEB3" mask="url(#mask-19)"></path>
                        <path d="M32.6217023,45.5550601 C27.6545267,49.914151 22.9140687,57.0450702 27.0451374,65.224247 C33.7312443,78.4620449 57.6726183,83.3110146 69.6563588,85.0560348 C72.4999466,85.4718783 77.8992595,80.6713429 78.903,78.3139742 C70.7947557,81.159146 38.7368931,75.8881056 32.6217023,45.5550601" id="Fill-221" fill="#EF8F6F" mask="url(#mask-19)"></path>
                        <polygon id="Fill-222" fill="#EF8F6F" mask="url(#mask-19)" points="129.764954 58.7042232 128.908237 53.6075465 131.996405 58.7907131"></polygon>
                        <path d="M113.167718,29.2290884 C112.032069,30.4205732 109.750466,31.158851 108.492527,31.2771692 C108.673901,29.0132096 109.044893,25.893346 110.061687,20.6520581 C111.195275,22.8551288 113.167718,29.2290884 113.167718,29.2290884" id="Fill-223" fill="#FFDEB3" mask="url(#mask-19)"></path>
                        <path d="M108.804092,30.9578485 C108.972412,28.8440354 110.134855,20.7928636 110.061344,20.6517121 C109.045237,25.8936919 108.565695,29.2287424 108.386382,31.492702 C109.641573,31.3743838 112.031725,30.4209192 113.168061,29.2287424 C113.168061,29.2287424 113.15226,29.1796162 113.130275,29.1062727 C111.897069,30.0977929 109.910885,30.8519848 108.804092,30.9578485" id="Fill-224" fill="#EF8F6F" mask="url(#mask-19)"></path>
                        <path d="M111.753412,32.5731338 C114.533794,31.4605278 115.598679,30.6053157 118.181198,28.1697601 C119.386924,29.8082247 120.760282,32.0112955 121.215779,34.7312298 C118.143412,35.9732247 116.158603,36.5011591 112.86845,36.416053 C111.821427,35.2231843 111.814557,33.9694268 111.753412,32.5731338" id="Fill-225" fill="#703428" mask="url(#mask-19)"></path>
                        <path d="M112.084214,32.8180732 C114.473679,31.9338005 115.744672,31.0578308 117.996733,29.0422702 C118.151313,31.2889318 118.911847,32.7156692 120.432229,34.69525 C117.789939,35.6826187 115.78658,36.0327298 112.987649,35.8874268 C113.035053,34.4108712 112.89284,33.6373056 112.084214,32.8180732" id="Fill-226" fill="#FFF0D9" mask="url(#mask-19)"></path>
                        <path d="M118.486786,28.2979727 C118.486786,28.0585687 118.323275,27.8655232 118.123351,27.8655232 C117.921366,27.8655232 117.757168,28.0585687 117.757168,28.2979727 C117.757168,28.535301 117.921366,28.7290384 118.123351,28.7290384 C118.323275,28.7290384 118.486786,28.535301 118.486786,28.2979727" id="Fill-227" fill="#703428" mask="url(#mask-19)"></path>
                        <path d="M112.011046,32.5302348 C112.011046,32.2922146 111.848908,32.0984773 111.646237,32.0984773 C111.444939,32.0984773 111.281427,32.2922146 111.281427,32.5302348 C111.281427,32.768947 111.444939,32.9619924 111.646237,32.9619924 C111.848908,32.9619924 112.011046,32.768947 112.011046,32.5302348" id="Fill-228" fill="#703428" mask="url(#mask-19)"></path>
                        <path d="M59.9891908,34.7647879 C59.9891908,34.6409343 59.8785802,34.5385303 59.7418626,34.5385303 C59.6065191,34.5385303 59.4965954,34.6409343 59.4965954,34.7647879 C59.4965954,34.8900253 59.6065191,34.9924293 59.7418626,34.9924293 C59.8785802,34.9924293 59.9891908,34.8900253 59.9891908,34.7647879" id="Fill-229" fill="#5B3D35" mask="url(#mask-19)"></path>
                        <path d="M65.0070687,39.3216985 C65.0070687,39.1964611 64.8978321,39.094749 64.7590534,39.094749 C64.6237099,39.094749 64.5137863,39.1964611 64.5137863,39.3216985 C64.5137863,39.4476278 64.6237099,39.5493399 64.7590534,39.5493399 C64.8978321,39.5493399 65.0070687,39.4476278 65.0070687,39.3216985" id="Fill-230" fill="#5B3D35" mask="url(#mask-19)"></path>
                        <path d="M194.096198,70.2803773 C198.717802,77.3068167 188.606885,106.907812 184.406427,117.664387 L183.277649,117.723892 C183.266656,106.066438 179.092992,94.6414682 176.915817,86.2318823 C171.814672,66.4907359 188.782763,62.1849227 194.096198,70.2803773" id="Fill-231" fill="#FFDEB3" mask="url(#mask-19)"></path>
                        <path d="M195.640695,70.1067056 C194.534588,68.4204985 192.103214,67.5549076 190.237947,66.9647005 C190.787565,67.4566551 191.281534,68.0357914 191.696496,68.724251 C195.783595,75.5244328 189.393595,105.562721 183.974359,117.619413 L184.406496,117.664387 C189.507641,107.134761 200.262985,77.1345288 195.640695,70.1067056" id="Fill-232" fill="#EF8F6F" mask="url(#mask-19)"></path>
                        <path d="M87.2238779,37.691952 C87.3688397,37.3252348 84.9676947,36.1302904 85.5599084,34.9374217 C85.8828092,34.2897854 87.0294504,35.0349823 88.2537252,33.479548 C88.5738779,33.0706237 87.8085344,31.8044116 88.3258626,31.7961086 C90.257084,31.7628965 91.5088397,34.3548258 90.9008244,35.2619318 C90.3725038,36.0438005 89.1626565,37.8524773 87.6505191,42.8744268 C86.7910534,45.7279015 85.7852519,41.3189924 87.2238779,37.691952" id="Fill-233" fill="#FFDEB3" mask="url(#mask-19)"></path>
                        <path d="M84.5295115,34.6140879 C83.914626,35.3862697 86.1337099,36.7202899 87.395084,37.6280879 L87.7489008,34.3546182 C85.9626412,35.0631434 85.1505802,33.8419061 84.5295115,34.6140879" id="Fill-234" fill="#FFDEB3" mask="url(#mask-19)"></path>
                        <path d="M87.3936412,33.7714687 C86.725855,33.3812263 85.8657023,33.640004 85.6857023,33.9562111 C85.5022672,34.2744939 86.0649389,34.5318879 86.7340992,34.9221303 C87.4039466,35.3109889 87.9240229,35.6839333 88.106084,35.3677263 C88.2888321,35.0508273 88.0641756,34.1610192 87.3936412,33.7714687" id="Fill-235" fill="#EF8F6F" mask="url(#mask-19)"></path>
                        <path d="M88.2283053,32.8001525 C87.5625802,32.410602 86.7017405,32.667996 86.5217405,32.984203 C86.3376183,33.3024859 86.9009771,33.5598798 87.5701374,33.9494303 C88.2406718,34.3389808 88.7600611,34.7133091 88.9421221,34.3957182 C89.1241832,34.0788192 88.9002137,33.189703 88.2283053,32.8001525" id="Fill-236" fill="#EF8F6F" mask="url(#mask-19)"></path>
                        <path d="M89.0012061,31.9231449 C88.3292977,31.5356702 87.4718931,31.7979076 87.2918931,32.1154985 C87.1105191,32.4337813 87.6759389,32.6884076 88.3444122,33.0758823 C89.0156336,33.4626652 89.538458,33.8342258 89.717771,33.5173268 C89.9005191,33.1997359 89.6696794,32.3120035 89.0012061,31.9231449" id="Fill-237" fill="#EF8F6F" mask="url(#mask-19)"></path>
                        <path d="M90.6536336,34.7813247 C90.1383664,34.6346379 89.6485191,34.5792843 89.5502748,34.9328551 C89.4499695,35.2857338 89.7790534,35.9126126 90.2943206,36.0592995 C90.8116489,36.2073702 91.2204275,36.3872692 91.3172977,36.0350823 C91.4182901,35.6828955 91.1716489,34.9300874 90.6536336,34.7813247" id="Fill-238" fill="#EF8F6F" mask="url(#mask-19)"></path>
                        <path d="M180.773725,120.898902 C180.979145,120.319074 181.413344,119.965503 181.752733,120.096276 C182.097618,120.22774 182.230214,120.810336 182.040595,121.408155 C181.845481,122.026038 181.389985,122.411437 181.031359,122.258523 C180.677542,122.105609 180.568992,121.491185 180.773725,120.898902" id="Fill-239" fill="#EF8F6F" mask="url(#mask-19)"></path>
                        <path d="M181.927718,121.158372 C182.11871,120.566781 182.554282,120.204907 182.909473,120.338447 C183.267412,120.475447 183.421992,121.071882 183.246115,121.686306 C183.060618,122.315953 182.605809,122.71173 182.230008,122.551897 C181.865198,122.396907 181.73329,121.765877 181.927718,121.158372" id="Fill-240" fill="#EF8F6F" mask="url(#mask-19)"></path>
                        <path d="M183.490282,121.341523 C183.664786,120.735402 184.101733,120.365917 184.472725,120.504301 C184.849214,120.643376 185.031962,121.255033 184.876008,121.884679 C184.708374,122.529548 184.254252,122.933629 183.858527,122.770336 C183.473107,122.609119 183.311656,121.962174 183.490282,121.341523" id="Fill-241" fill="#EF8F6F" mask="url(#mask-19)"></path>
                        <path d="M182.020328,121.201963 C181.051626,120.936266 180.48071,120.307311 180.825595,119.837498 C181.158802,119.382215 182.172847,119.304028 183.036435,119.622311 C183.820328,119.915685 184.236664,120.452614 184.00445,120.856003 C183.76674,121.273922 182.90384,121.440675 182.020328,121.201963" id="Fill-242" fill="#FFDEB3" mask="url(#mask-19)"></path>
                        <path d="M183.963985,119.195466 C183.363527,119.800895 181.324443,120.812481 180.925282,120.48036 C180.505511,120.135784 180.253374,119.933052 181.089481,119.218299 C181.856198,118.564436 182.72116,115.243916 183.696733,115.373305 C184.152916,115.433502 184.517038,118.632936 183.963985,119.195466" id="Fill-243" fill="#FFDEB3" mask="url(#mask-19)"></path>
                        <path d="M185.090427,114.853051 C184.103863,117.921712 185.03684,122.941586 183.594092,122.860631 C182.154092,122.780369 180.191954,122.212995 180.352718,121.559823 C180.508672,120.907343 182.637069,117.803394 183.185313,115.565035 C183.84142,112.894227 185.090427,114.853051 185.090427,114.853051" id="Fill-244" fill="#FFDEB3" mask="url(#mask-19)"></path>
                        <path d="M179.077672,69.3293343 C175.892634,72.1143091 173.978588,77.0691424 176.040344,85.0518141 C177.101107,89.1486677 179.507748,95.1434556 180.802786,100.349456 C178.737595,87.2223646 175.19874,77.3853495 179.077672,69.3293343" id="Fill-245" fill="#EF8F6F" mask="url(#mask-19)"></path>
                        <path d="M108.100305,6.29203636 C114.342595,5.43059697 122.555954,3.29948586 126.671221,9.4444202 C123.315115,1.32751616 115.031679,3.97133939 108.880763,5.10193535 C105.991832,5.63402121 104.008397,6.63176869 102.630916,7.98516263 C104.059237,7.18322828 105.844809,6.6034 108.100305,6.29203636" id="Fill-246" fill="#C96D5B" mask="url(#mask-19)"></path>
                        <path d="M102.972435,17.2948662 C102.976557,17.604846 102.985489,17.9113662 103.005412,18.1895177 C103.022588,18.1493864 103.042511,18.1154823 103.057626,18.0746591 C103.324191,17.4173359 103.619611,16.8416591 103.930832,16.3047298 C103.599,16.5987955 103.281595,16.9343763 102.972435,17.2948662" id="Fill-247" fill="#C96D5B" mask="url(#mask-19)"></path>
                        <path d="M99.662771,16.1734727 C99.6174275,16.8557051 99.5885725,17.5559273 99.574145,18.2755232 C100.031015,16.9276646 100.573763,15.8406596 101.189336,14.963998 C100.659641,15.2850485 100.146435,15.6787505 99.662771,16.1734727" id="Fill-248" fill="#C96D5B" mask="url(#mask-19)"></path>
                        <path d="M63.5920763,13.0075273 C63.5920763,13.0075273 64.5841374,6.19143131 69.6200153,5.22551212 C69.6200153,5.22551212 62.7573435,2.12225455 57.8671145,13.4600424 L63.5920763,13.0075273 Z" id="Fill-249" fill="#913E2D" mask="url(#mask-19)"></path>
                        <path d="M71.2304656,13.395348 C71.2304656,13.395348 72.0693206,10.0104793 75.0022214,10.5245753 C75.0022214,10.5245753 72.1558855,8.06065101 68.2219924,12.7850753 L71.2304656,13.395348 Z" id="Fill-250" fill="#913E2D" mask="url(#mask-19)"></path>
                        <path d="M58.6460611,13.4520854 C58.6460611,13.4520854 54.5177405,7.96170657 57.3640763,3.66834798 C57.3640763,3.66834798 50.3557557,6.42080253 54.9512519,17.8803682 L58.6460611,13.4520854 Z" id="Fill-251" fill="#913E2D" mask="url(#mask-19)"></path>
                    </g>
                    <g id="Group-285" transform="translate(39.000000, 141.000000)">
                        <polygon id="Fill-253" fill="#248589" points="40.9984644 33.3750569 10.4331533 27.1785986 27.4493978 14.4113764"></polygon>
                        <polygon id="Fill-255" fill="#248589" points="82.2470644 33.3750569 113.71482 27.1785986 96.1970644 14.4113764"></polygon>
                        <polygon id="Fill-257" fill="#F2CDAF" points="96.3814111 23.7492111 27.4511889 23.7492111 61.9452333 48.5643083"></polygon>
                        <polygon id="Fill-259" fill="#42312A" points="93.5491133 25.53635 30.2843133 25.53635 61.9422022 46.1313222"></polygon>
                        <polygon id="Fill-261" fill="#42312A" points="96.2306822 23.7492111 27.2997711 23.7492111 36.63766 30.466975 86.9093267 30.466975"></polygon>
                        <polygon id="Fill-263" fill="url(#linearGradient-20)" points="123.651698 0.198313889 0.627164444 0.198313889 10.4328089 27.1789389 113.846053 27.1789389"></polygon>
                        <polygon id="Fill-265" fill="#4FBDE6" points="103.052336 0.198313889 21.2274911 0.198313889 27.7485133 27.1789389 96.5299356 27.1789389"></polygon>
                        <path d="M25.34374,6.6731875 L25.34374,8.28338194 L24.7065178,9.93032639 L20.6792733,9.93032639 L20.6792733,16.3887986 L25.34374,16.3887986 L25.34374,19.6268819 L18.2254511,19.6268819 C17.2520511,19.6268819 16.5762511,18.9612986 16.5762511,18.0173681 L16.5762511,8.28338194 C16.5762511,7.33945139 17.2520511,6.6731875 18.2254511,6.6731875 L25.34374,6.6731875 Z" id="Fill-267" fill="#FFFAE1"></path>
                        <polygon id="Fill-269" fill="#FFFAE1" points="32.1976333 11.3735806 32.1976333 6.67298333 36.2806778 6.67298333 36.2806778 19.6266778 32.1976333 19.6266778 32.1976333 14.6123444 30.5484333 14.6123444 30.5484333 19.6266778 26.4653889 19.6266778 26.4653889 6.67298333 30.5484333 6.67298333 30.5484333 11.3735806"></polygon>
                        <path d="M43.24748,13.7794806 L42.8734133,9.93025833 L42.4235689,9.93025833 L42.0488133,13.7794806 L43.24748,13.7794806 Z M46.0574578,6.67311944 L47.8926578,18.0173 L47.8926578,19.6268139 L43.7903244,19.6268139 L43.5471467,17.0175639 L41.7484578,17.0175639 L41.4859911,19.6268139 L37.4029467,19.6268139 L37.4029467,18.0173 L39.2388356,6.67311944 L46.0574578,6.67311944 Z" id="Fill-271" fill="#FFFAE1"></path>
                        <polygon id="Fill-273" fill="#FFFAE1" points="49.0142378 6.6731875 53.0979711 6.6731875 53.0979711 16.3887986 57.2189044 16.3887986 57.2189044 19.6268819 49.0142378 19.6268819"></polygon>
                        <polygon id="Fill-275" fill="#FFFAE1" points="58.1534511 6.6731875 62.2378733 6.6731875 62.2378733 16.3887986 66.3574289 16.3887986 66.3574289 19.6268819 58.1534511 19.6268819"></polygon>
                        <polygon id="Fill-277" fill="#FFFAE1" points="67.2926644 19.6270181 67.2926644 6.67332361 76.0594644 6.67332361 76.0594644 8.28351806 75.4036422 9.92978194 71.3763978 9.92978194 71.3763978 11.3739208 75.4036422 11.3739208 75.4036422 14.6126847 71.3763978 14.6126847 71.3763978 16.3889347 76.0594644 16.3889347 76.0594644 19.6270181"></polygon>
                        <polygon id="Fill-279" fill="#FFFAE1" points="83.7748822 12.6692903 83.2320378 8.28379028 83.2320378 6.67291528 87.0161044 6.67291528 87.0161044 19.6272903 82.6699044 19.6272903 80.7410156 13.6499708 80.4227489 13.6499708 80.9463044 18.0170958 80.9463044 19.6272903 77.1815267 19.6272903 77.1815267 6.67291528 81.5270378 6.67291528 83.4380156 12.6692903"></polygon>
                        <path d="M98.2711022,6.6731875 L98.2711022,8.28338194 L97.61528,9.93032639 L92.6139467,9.93032639 L92.6139467,16.3887986 L94.2438578,16.3887986 L94.2438578,12.0400486 L98.3461911,12.0400486 L98.3461911,19.6268819 L90.1608133,19.6268819 C89.1867244,19.6268819 88.5116133,18.9612986 88.5116133,18.0173681 L88.5116133,8.28338194 C88.5116133,7.33945139 89.1867244,6.6731875 90.1608133,6.6731875 L98.2711022,6.6731875 Z" id="Fill-281" fill="#FFFAE1"></path>
                        <polygon id="Fill-283" fill="#FFFAE1" points="99.8426644 19.6270181 99.8426644 6.67332361 108.609464 6.67332361 108.609464 8.28351806 107.952953 9.92978194 103.926398 9.92978194 103.926398 11.3739208 107.952953 11.3739208 107.952953 14.6126847 103.926398 14.6126847 103.926398 16.3889347 108.609464 16.3889347 108.609464 19.6270181"></polygon>
                    </g>
                </g>
            </g>
        </g>
    </g>
</svg>