<svg xmlns="http://www.w3.org/2000/svg" xmlns:xlink="http://www.w3.org/1999/xlink" viewBox="0 0 100 116"><defs><style>.cls-1{isolation:isolate;}.cls-2{fill:url(#linear-gradient);}.cls-3{fill:#e6e8e5;opacity:0.5;}.cls-11,.cls-12,.cls-13,.cls-14,.cls-16,.cls-17,.cls-18,.cls-19,.cls-21,.cls-22,.cls-23,.cls-24,.cls-3,.cls-6,.cls-7,.cls-8,.cls-9{mix-blend-mode:multiply;}.cls-4{fill:url(#linear-gradient-2);}.cls-5{fill:url(#linear-gradient-3);}.cls-6{fill:url(#linear-gradient-4);}.cls-7{fill:url(#linear-gradient-5);}.cls-8{fill:url(#linear-gradient-6);}.cls-9{fill:url(#linear-gradient-7);}.cls-10{fill:url(#linear-gradient-8);}.cls-11{fill:url(#linear-gradient-9);}.cls-12{fill:url(#linear-gradient-10);}.cls-13{fill:url(#linear-gradient-11);}.cls-14{fill:url(#linear-gradient-12);}.cls-15{fill:url(#linear-gradient-13);}.cls-16{fill:url(#linear-gradient-14);}.cls-17{fill:url(#linear-gradient-15);}.cls-18{fill:url(#linear-gradient-16);}.cls-19{fill:url(#linear-gradient-17);}.cls-20{fill:url(#linear-gradient-18);}.cls-21{fill:url(#linear-gradient-19);}.cls-22{fill:url(#linear-gradient-20);}.cls-23{fill:url(#linear-gradient-21);}.cls-24{fill:url(#linear-gradient-22);}</style><linearGradient id="linear-gradient" x1="50" y1="92.94" x2="50" y2="1.19" gradientUnits="userSpaceOnUse"><stop offset="0" stop-color="#ceccce"/><stop offset="1" stop-color="#e6e8e5"/></linearGradient><linearGradient id="linear-gradient-2" x1="8.21" y1="47.06" x2="91.79" y2="47.06" xlink:href="#linear-gradient"/><linearGradient id="linear-gradient-3" x1="9.44" y1="94.14" x2="29.02" y2="94.14" xlink:href="#linear-gradient"/><linearGradient id="linear-gradient-4" x1="13.18" y1="99.2" x2="25.28" y2="99.2" xlink:href="#linear-gradient"/><linearGradient id="linear-gradient-5" x1="9.44" y1="94.33" x2="19.23" y2="94.33" xlink:href="#linear-gradient"/><linearGradient id="linear-gradient-6" x1="19.23" y1="90.02" x2="22.26" y2="90.02" xlink:href="#linear-gradient"/><linearGradient id="linear-gradient-7" x1="19.23" y1="94.33" x2="29.02" y2="94.33" xlink:href="#linear-gradient"/><linearGradient id="linear-gradient-8" x1="29.43" y1="104.14" x2="49.02" y2="104.14" xlink:href="#linear-gradient"/><linearGradient id="linear-gradient-9" x1="33.18" y1="109.2" x2="45.28" y2="109.2" xlink:href="#linear-gradient"/><linearGradient id="linear-gradient-10" x1="29.43" y1="104.33" x2="39.23" y2="104.33" xlink:href="#linear-gradient"/><linearGradient id="linear-gradient-11" x1="39.23" y1="100.02" x2="42.25" y2="100.02" xlink:href="#linear-gradient"/><linearGradient id="linear-gradient-12" x1="39.23" y1="104.33" x2="49.02" y2="104.33" xlink:href="#linear-gradient"/><linearGradient id="linear-gradient-13" x1="52.72" y1="104.14" x2="72.31" y2="104.14" xlink:href="#linear-gradient"/><linearGradient id="linear-gradient-14" x1="56.47" y1="109.2" x2="68.57" y2="109.2" xlink:href="#linear-gradient"/><linearGradient id="linear-gradient-15" x1="52.72" y1="104.33" x2="62.52" y2="104.33" xlink:href="#linear-gradient"/><linearGradient id="linear-gradient-16" x1="62.52" y1="100.02" x2="65.54" y2="100.02" xlink:href="#linear-gradient"/><linearGradient id="linear-gradient-17" x1="62.52" y1="104.33" x2="72.31" y2="104.33" xlink:href="#linear-gradient"/><linearGradient id="linear-gradient-18" x1="72.52" y1="94.14" x2="92.11" y2="94.14" xlink:href="#linear-gradient"/><linearGradient id="linear-gradient-19" x1="76.26" y1="99.2" x2="88.37" y2="99.2" xlink:href="#linear-gradient"/><linearGradient id="linear-gradient-20" x1="72.52" y1="94.33" x2="82.32" y2="94.33" xlink:href="#linear-gradient"/><linearGradient id="linear-gradient-21" x1="82.32" y1="90.02" x2="85.34" y2="90.02" xlink:href="#linear-gradient"/><linearGradient id="linear-gradient-22" x1="82.32" y1="94.33" x2="92.11" y2="94.33" xlink:href="#linear-gradient"/></defs><title>User</title><g class="cls-1"><g id="Layer_1" data-name="Layer 1"><path class="cls-2" d="M50,1.5A45.57,45.57,0,1,0,95.36,47.06,45.46,45.46,0,0,0,50,1.5Zm0,86.89A41.33,41.33,0,1,1,91.13,47.06,41.28,41.28,0,0,1,50,88.39Z"/><path class="cls-3" d="M50,2.2A44.87,44.87,0,1,0,94.66,47.06,44.81,44.81,0,0,0,50,2.2Zm0,86.19A41.33,41.33,0,1,1,91.13,47.06,41.28,41.28,0,0,1,50,88.39Z"/><path class="cls-4" d="M50,5.09a42,42,0,1,0,41.79,42A41.93,41.93,0,0,0,50,5.09Zm0,79.65A37.68,37.68,0,1,1,87.5,47.06,37.63,37.63,0,0,1,50,84.74Z"/><polygon class="cls-5" points="19.23 84.82 22.26 90.95 29.02 91.94 24.13 96.71 25.28 103.45 19.23 100.27 13.18 103.45 14.34 96.71 9.44 91.94 16.21 90.95 19.23 84.82"/><polygon class="cls-6" points="13.18 103.45 19.23 94.95 25.28 103.45 19.23 100.27 13.18 103.45"/><polygon class="cls-7" points="19.23 94.95 14.34 96.71 9.44 91.94 19.23 94.95"/><polygon class="cls-8" points="19.23 85.09 19.23 94.95 22.26 90.95 19.23 85.09"/><polygon class="cls-9" points="29.02 91.94 19.23 94.95 24.13 96.71 29.02 91.94"/><polygon class="cls-10" points="39.23 94.82 42.25 100.95 49.02 101.94 44.12 106.71 45.28 113.45 39.23 110.27 33.17 113.45 34.33 106.71 29.43 101.94 36.2 100.95 39.23 94.82"/><polygon class="cls-11" points="33.17 113.45 39.23 104.95 45.28 113.45 39.23 110.27 33.17 113.45"/><polygon class="cls-12" points="39.23 104.95 34.33 106.71 29.43 101.94 39.23 104.95"/><polygon class="cls-13" points="39.23 95.09 39.23 104.95 42.25 100.95 39.23 95.09"/><polygon class="cls-14" points="49.02 101.94 39.23 104.95 44.12 106.71 49.02 101.94"/><polygon class="cls-15" points="62.52 94.82 65.54 100.95 72.31 101.94 67.41 106.71 68.57 113.45 62.52 110.27 56.47 113.45 57.62 106.71 52.73 101.94 59.49 100.95 62.52 94.82"/><polygon class="cls-16" points="56.47 113.45 62.52 104.95 68.57 113.45 62.52 110.27 56.47 113.45"/><polygon class="cls-17" points="62.52 104.95 57.62 106.71 52.73 101.94 62.52 104.95"/><polygon class="cls-18" points="62.52 95.09 62.52 104.95 65.54 100.95 62.52 95.09"/><polygon class="cls-19" points="72.31 101.94 62.52 104.95 67.41 106.71 72.31 101.94"/><polygon class="cls-20" points="82.32 84.82 85.34 90.95 92.11 91.94 87.21 96.71 88.37 103.45 82.32 100.27 76.26 103.45 77.42 96.71 72.52 91.94 79.29 90.95 82.32 84.82"/><polygon class="cls-21" points="76.26 103.45 82.32 94.95 88.37 103.45 82.32 100.27 76.26 103.45"/><polygon class="cls-22" points="82.32 94.95 77.42 96.71 72.52 91.94 82.32 94.95"/><polygon class="cls-23" points="82.32 85.09 82.32 94.95 85.34 90.95 82.32 85.09"/><polygon class="cls-24" points="92.11 91.94 82.32 94.95 87.21 96.71 92.11 91.94"/></g></g></svg>