<svg xmlns="http://www.w3.org/2000/svg" xmlns:xlink="http://www.w3.org/1999/xlink" viewBox="0 0 100 116"><defs><style>.cls-1{isolation:isolate;}.cls-2{fill:url(#linear-gradient);}.cls-3{fill:url(#linear-gradient-2);}.cls-4,.cls-5{fill:#f2e6d7;}.cls-16,.cls-4{opacity:0.5;}.cls-10,.cls-12,.cls-13,.cls-14,.cls-15,.cls-16,.cls-4,.cls-7,.cls-8,.cls-9{mix-blend-mode:multiply;}.cls-6{fill:url(#linear-gradient-3);}.cls-7{fill:url(#linear-gradient-4);}.cls-8{fill:url(#linear-gradient-5);}.cls-9{fill:url(#linear-gradient-6);}.cls-10{fill:url(#linear-gradient-7);}.cls-11{fill:url(#linear-gradient-8);}.cls-12{fill:url(#linear-gradient-9);}.cls-13{fill:url(#linear-gradient-10);}.cls-14{fill:url(#linear-gradient-11);}.cls-15{fill:url(#linear-gradient-12);}.cls-16{fill:none;stroke-miterlimit:10;stroke:url(#linear-gradient-13);}.cls-17{fill:url(#linear-gradient-14);}</style><linearGradient id="linear-gradient" x1="-3.23" y1="-16.48" x2="102.44" y2="109.66" gradientUnits="userSpaceOnUse"><stop offset="0" stop-color="#b8a791"/><stop offset="0.18" stop-color="#cfbca3"/><stop offset="0.33" stop-color="#e6d1b6"/><stop offset="0.52" stop-color="#f2e6d7"/><stop offset="0.69" stop-color="#e6d1b6"/><stop offset="0.85" stop-color="#cfbca3"/><stop offset="1" stop-color="#b8a791"/></linearGradient><linearGradient id="linear-gradient-2" x1="50" y1="92.94" x2="50" y2="1.19" gradientUnits="userSpaceOnUse"><stop offset="0" stop-color="#e6d1b6"/><stop offset="1" stop-color="#f2e6d7"/></linearGradient><linearGradient id="linear-gradient-3" x1="52.83" y1="104.14" x2="72.83" y2="104.14" xlink:href="#linear-gradient-2"/><linearGradient id="linear-gradient-4" x1="56.65" y1="109.31" x2="69.01" y2="109.31" xlink:href="#linear-gradient-2"/><linearGradient id="linear-gradient-5" x1="52.83" y1="104.33" x2="62.83" y2="104.33" xlink:href="#linear-gradient-2"/><linearGradient id="linear-gradient-6" x1="62.83" y1="99.93" x2="65.92" y2="99.93" xlink:href="#linear-gradient-2"/><linearGradient id="linear-gradient-7" x1="62.83" y1="104.33" x2="72.83" y2="104.33" xlink:href="#linear-gradient-2"/><linearGradient id="linear-gradient-8" x1="27.83" y1="104.14" x2="47.83" y2="104.14" xlink:href="#linear-gradient-2"/><linearGradient id="linear-gradient-9" x1="31.65" y1="109.31" x2="44.01" y2="109.31" xlink:href="#linear-gradient-2"/><linearGradient id="linear-gradient-10" x1="27.83" y1="104.33" x2="37.83" y2="104.33" xlink:href="#linear-gradient-2"/><linearGradient id="linear-gradient-11" x1="37.83" y1="99.93" x2="40.92" y2="99.93" xlink:href="#linear-gradient-2"/><linearGradient id="linear-gradient-12" x1="37.83" y1="104.33" x2="47.83" y2="104.33" xlink:href="#linear-gradient-2"/><linearGradient id="linear-gradient-13" x1="49.87" y1="21.22" x2="49.87" y2="69.04" gradientUnits="userSpaceOnUse"><stop offset="0" stop-color="#73685b"/><stop offset="0.16" stop-color="#a1927f"/><stop offset="0.33" stop-color="#cfbca3"/><stop offset="0.52" stop-color="#cfbca3"/><stop offset="0.69" stop-color="#cfbca3"/><stop offset="0.85" stop-color="#a1927f"/><stop offset="1" stop-color="#73685b"/></linearGradient><linearGradient id="linear-gradient-14" x1="50" y1="24.91" x2="50" y2="68.38" gradientUnits="userSpaceOnUse"><stop offset="0" stop-color="#b8a791"/><stop offset="0.18" stop-color="#cfbca3"/><stop offset="0.33" stop-color="#e6d1b6"/><stop offset="0.69" stop-color="#e6d1b6"/><stop offset="0.85" stop-color="#cfbca3"/><stop offset="1" stop-color="#b8a791"/></linearGradient></defs><title>Usernumber</title><g class="cls-1"><g id="Layer_1" data-name="Layer 1"><path class="cls-2" d="M50,84.74A37.68,37.68,0,1,1,87.5,47.06,37.63,37.63,0,0,1,50,84.74Z"/><path class="cls-3" d="M50,1.5A45.57,45.57,0,1,0,95.36,47.06,45.46,45.46,0,0,0,50,1.5Zm0,86.89A41.33,41.33,0,1,1,91.13,47.06,41.28,41.28,0,0,1,50,88.39Z"/><path class="cls-4" d="M50,2.2A44.87,44.87,0,1,0,94.66,47.06,44.81,44.81,0,0,0,50,2.2Zm0,86.19A41.33,41.33,0,1,1,91.13,47.06,41.28,41.28,0,0,1,50,88.39Z"/><path class="cls-5" d="M50,5.09a42,42,0,1,0,41.79,42A41.93,41.93,0,0,0,50,5.09Zm0,79.65A37.68,37.68,0,1,1,87.5,47.06,37.63,37.63,0,0,1,50,84.74Z"/><polygon class="cls-6" points="62.83 94.63 65.92 100.89 72.83 101.89 67.83 106.77 69.01 113.65 62.83 110.4 56.65 113.65 57.83 106.77 52.83 101.89 59.74 100.89 62.83 94.63"/><polygon class="cls-7" points="56.65 113.65 62.83 104.97 69.01 113.65 62.83 110.4 56.65 113.65"/><polygon class="cls-8" points="62.83 104.97 57.83 106.77 52.83 101.89 62.83 104.97"/><polygon class="cls-9" points="62.83 94.9 62.83 104.97 65.92 100.89 62.83 94.9"/><polygon class="cls-10" points="72.83 101.89 62.83 104.97 67.83 106.77 72.83 101.89"/><polygon class="cls-11" points="37.83 94.63 40.92 100.89 47.83 101.89 42.83 106.77 44.01 113.65 37.83 110.4 31.65 113.65 32.83 106.77 27.83 101.89 34.74 100.89 37.83 94.63"/><polygon class="cls-12" points="31.65 113.65 37.83 104.97 44.01 113.65 37.83 110.4 31.65 113.65"/><polygon class="cls-13" points="37.83 104.97 32.83 106.77 27.83 101.89 37.83 104.97"/><polygon class="cls-14" points="37.83 94.9 37.83 104.97 40.92 100.89 37.83 94.9"/><polygon class="cls-15" points="47.83 101.89 37.83 104.97 42.83 106.77 47.83 101.89"/><path class="cls-16" d="M30.94,68.54v-2a31.91,31.91,0,0,1,.55-6.13,18.1,18.1,0,0,1,2.07-5.59,20.66,20.66,0,0,1,4-4.9,32.48,32.48,0,0,1,6.29-4.37c1.74-.95,3.38-1.81,4.91-2.61a40,40,0,0,0,3.83-2.21,10,10,0,0,0,2.31-2A2.68,2.68,0,0,0,55.48,37a3.68,3.68,0,0,0-1.39-2.77,6.47,6.47,0,0,0-4.5-1.34,9.51,9.51,0,0,0-3,.45,12.15,12.15,0,0,0-2.6,1.2,11.52,11.52,0,0,0-2,1.59c-.65.65-1.23,1.28-1.72,1.87L38.7,39.77l-7.84-9.08,1.19-1.32a20.7,20.7,0,0,1,2.58-2.27,25.11,25.11,0,0,1,4.17-2.52,30.43,30.43,0,0,1,5.48-2,26.15,26.15,0,0,1,6.79-.84,22.56,22.56,0,0,1,7,1,16.28,16.28,0,0,1,5.45,2.9A12.89,12.89,0,0,1,67,30.22a13.53,13.53,0,0,1,1.21,5.66,12.46,12.46,0,0,1-1.33,5.78,17.18,17.18,0,0,1-3.09,4.25A19.57,19.57,0,0,1,59.9,49c-1.3.78-2.54,1.46-3.66,2S54,52.08,52.75,52.73a31.09,31.09,0,0,0-3.56,2.14,23.5,23.5,0,0,0-2.87,2.37H69.06v11.3Z"/><path class="cls-17" d="M32.94,66.54a30.45,30.45,0,0,1,.51-5.75,16.25,16.25,0,0,1,1.85-5,18.42,18.42,0,0,1,3.61-4.42A30.59,30.59,0,0,1,44.8,47.3q2.58-1.39,4.87-2.58a44.07,44.07,0,0,0,4-2.32A11.93,11.93,0,0,0,56.45,40a4.64,4.64,0,0,0,1-3,5.66,5.66,0,0,0-2-4.23,8.27,8.27,0,0,0-5.86-1.88,11.39,11.39,0,0,0-3.64.55,14,14,0,0,0-3,1.4,13.32,13.32,0,0,0-2.39,1.88c-.69.69-1.3,1.35-1.84,2l-5.16-6a18,18,0,0,1,2.32-2,23.2,23.2,0,0,1,3.83-2.32,28.52,28.52,0,0,1,5.12-1.88,24.37,24.37,0,0,1,6.27-.77,20.37,20.37,0,0,1,6.37.92,14.27,14.27,0,0,1,4.79,2.54,10.81,10.81,0,0,1,3,3.87,11.41,11.41,0,0,1,1,4.83,10.48,10.48,0,0,1-1.1,4.86,15.06,15.06,0,0,1-2.73,3.76,18,18,0,0,1-3.54,2.76c-1.28.77-2.46,1.42-3.54,2s-2.2,1.07-3.5,1.73a30.71,30.71,0,0,0-3.79,2.28A24.74,24.74,0,0,0,44.73,56a8.23,8.23,0,0,0-2.06,3.24H67.06v7.3Z"/></g></g></svg>