<svg xmlns="http://www.w3.org/2000/svg" xmlns:xlink="http://www.w3.org/1999/xlink" viewBox="0 0 100 116"><defs><style>.cls-1{isolation:isolate;}.cls-2{fill:url(#linear-gradient);}.cls-3,.cls-4{fill:#f2e6d7;}.cls-11,.cls-3{opacity:0.5;}.cls-11,.cls-3,.cls-6,.cls-7,.cls-8,.cls-9{mix-blend-mode:multiply;}.cls-5{fill:url(#linear-gradient-2);}.cls-6{fill:url(#linear-gradient-3);}.cls-7{fill:url(#linear-gradient-4);}.cls-8{fill:url(#linear-gradient-5);}.cls-9{fill:url(#linear-gradient-6);}.cls-10{fill:url(#linear-gradient-7);}.cls-11{fill:none;stroke-miterlimit:10;stroke:url(#linear-gradient-8);}.cls-12{fill:url(#linear-gradient-9);}</style><linearGradient id="linear-gradient" x1="50" y1="92.94" x2="50" y2="1.19" gradientUnits="userSpaceOnUse"><stop offset="0" stop-color="#e6d1b6"/><stop offset="1" stop-color="#f2e6d7"/></linearGradient><linearGradient id="linear-gradient-2" x1="38.45" y1="105.14" x2="58.45" y2="105.14" xlink:href="#linear-gradient"/><linearGradient id="linear-gradient-3" x1="42.27" y1="110.31" x2="54.64" y2="110.31" xlink:href="#linear-gradient"/><linearGradient id="linear-gradient-4" x1="38.45" y1="105.33" x2="48.45" y2="105.33" xlink:href="#linear-gradient"/><linearGradient id="linear-gradient-5" x1="48.45" y1="100.93" x2="51.54" y2="100.93" xlink:href="#linear-gradient"/><linearGradient id="linear-gradient-6" x1="48.45" y1="105.33" x2="58.45" y2="105.33" xlink:href="#linear-gradient"/><linearGradient id="linear-gradient-7" x1="-6" y1="-20.24" x2="99.62" y2="106.7" gradientUnits="userSpaceOnUse"><stop offset="0" stop-color="#b8a791"/><stop offset="0.18" stop-color="#cfbca3"/><stop offset="0.33" stop-color="#e6d1b6"/><stop offset="0.52" stop-color="#f2e6d7"/><stop offset="0.69" stop-color="#e6d1b6"/><stop offset="0.85" stop-color="#cfbca3"/><stop offset="1" stop-color="#b8a791"/></linearGradient><linearGradient id="linear-gradient-8" x1="50" y1="23.95" x2="50" y2="71.04" gradientUnits="userSpaceOnUse"><stop offset="0" stop-color="#73685b"/><stop offset="0.16" stop-color="#a1927f"/><stop offset="0.33" stop-color="#cfbca3"/><stop offset="0.52" stop-color="#cfbca3"/><stop offset="0.69" stop-color="#cfbca3"/><stop offset="0.85" stop-color="#a1927f"/><stop offset="1" stop-color="#73685b"/></linearGradient><linearGradient id="linear-gradient-9" x1="50" y1="27.02" x2="50" y2="68.74" gradientUnits="userSpaceOnUse"><stop offset="0" stop-color="#b8a791"/><stop offset="0.18" stop-color="#cfbca3"/><stop offset="0.33" stop-color="#e6d1b6"/><stop offset="0.69" stop-color="#e6d1b6"/><stop offset="0.85" stop-color="#cfbca3"/><stop offset="1" stop-color="#b8a791"/></linearGradient></defs><title>Usernumber</title><g class="cls-1"><g id="Layer_1" data-name="Layer 1"><path class="cls-2" d="M50,1.5A45.57,45.57,0,1,0,95.36,47.06,45.46,45.46,0,0,0,50,1.5Zm0,86.89A41.33,41.33,0,1,1,91.13,47.06,41.28,41.28,0,0,1,50,88.39Z"/><path class="cls-3" d="M50,2.2A44.87,44.87,0,1,0,94.66,47.06,44.81,44.81,0,0,0,50,2.2Zm0,86.19A41.33,41.33,0,1,1,91.13,47.06,41.28,41.28,0,0,1,50,88.39Z"/><path class="cls-4" d="M50,5.09a42,42,0,1,0,41.79,42A41.93,41.93,0,0,0,50,5.09Zm0,79.65A37.68,37.68,0,1,1,87.5,47.06,37.63,37.63,0,0,1,50,84.74Z"/><polygon class="cls-5" points="48.45 95.63 51.55 101.89 58.45 102.89 53.45 107.77 54.63 114.65 48.45 111.4 42.27 114.65 43.45 107.77 38.45 102.89 45.37 101.89 48.45 95.63"/><polygon class="cls-6" points="42.27 114.65 48.45 105.97 54.63 114.65 48.45 111.4 42.27 114.65"/><polygon class="cls-7" points="48.45 105.97 43.45 107.77 38.45 102.89 48.45 105.97"/><polygon class="cls-8" points="48.45 95.9 48.45 105.97 51.55 101.89 48.45 95.9"/><polygon class="cls-9" points="58.45 102.89 48.45 105.97 53.45 107.77 58.45 102.89"/><path class="cls-10" d="M50,84.74A37.68,37.68,0,1,1,87.5,47.06,37.63,37.63,0,0,1,50,84.74Z"/><path class="cls-11" d="M34.66,70.54V59.24H45.13V39.7a25,25,0,0,1-2.3,1.23A25.53,25.53,0,0,1,39,42.41a13.29,13.29,0,0,1-3.81.64h-2V31.46h2a6.66,6.66,0,0,0,2.6-.71,26.34,26.34,0,0,0,3.49-1.92,28.29,28.29,0,0,0,2.95-2.19,7.9,7.9,0,0,0,1.09-1.06l.48-1.13H57.45V59.24h9.36v11.3Z"/><path class="cls-12" d="M64.81,61.24v7.3H36.66v-7.3H47.13V35.52a9,9,0,0,1-2.07,1.84A22.72,22.72,0,0,1,42,39.13a23.55,23.55,0,0,1-3.54,1.36,11.48,11.48,0,0,1-3.24.56V33.46a8.5,8.5,0,0,0,3.42-.89,28.58,28.58,0,0,0,3.76-2.06,29,29,0,0,0,3.17-2.36,6.63,6.63,0,0,0,1.59-1.7h8.32V61.24Z"/></g></g></svg>